<?xml version="1.0" encoding="UTF-8"?>
<svg id="_レイヤー_2" data-name="レイヤー 2" xmlns="http://www.w3.org/2000/svg" xmlns:xlink="http://www.w3.org/1999/xlink" viewBox="0 0 1278.69 738.43">
  <defs>
    <style>
      .cls-1, .cls-2, .cls-3, .cls-4, .cls-5, .cls-6, .cls-7, .cls-8, .cls-9, .cls-10, .cls-11, .cls-12, .cls-13, .cls-14, .cls-15, .cls-16, .cls-17, .cls-18, .cls-19, .cls-20, .cls-21 {
        stroke-linecap: round;
      }

      .cls-1, .cls-3, .cls-4, .cls-22, .cls-23, .cls-6, .cls-24, .cls-25, .cls-11, .cls-12, .cls-13, .cls-14, .cls-26, .cls-15, .cls-16, .cls-17, .cls-18, .cls-20, .cls-21 {
        fill: none;
      }

      .cls-1, .cls-3, .cls-22, .cls-27, .cls-23, .cls-25, .cls-11, .cls-12, .cls-13, .cls-14, .cls-28, .cls-26, .cls-29, .cls-30, .cls-31, .cls-16, .cls-32, .cls-33, .cls-34, .cls-21, .cls-35 {
        stroke-miterlimit: 10;
      }

      .cls-1, .cls-3, .cls-23, .cls-6, .cls-25, .cls-11, .cls-13, .cls-14, .cls-21 {
        stroke: #fff;
      }

      .cls-1, .cls-5, .cls-6, .cls-25, .cls-17 {
        stroke-width: 2.6px;
      }

      .cls-2, .cls-4, .cls-22, .cls-5, .cls-7, .cls-8, .cls-9, .cls-10, .cls-12, .cls-28, .cls-26, .cls-29, .cls-31, .cls-16, .cls-17, .cls-18, .cls-32, .cls-33, .cls-19, .cls-20 {
        stroke: #000;
      }

      .cls-2, .cls-4, .cls-5, .cls-6, .cls-7, .cls-8, .cls-9, .cls-10, .cls-15, .cls-17, .cls-18, .cls-19, .cls-20 {
        stroke-linejoin: round;
      }

      .cls-2, .cls-36 {
        fill: #fff64a;
      }

      .cls-2, .cls-9, .cls-12, .cls-15, .cls-21 {
        stroke-width: 2.7px;
      }

      .cls-37, .cls-36, .cls-38, .cls-24, .cls-39, .cls-40, .cls-41, .cls-42, .cls-43, .cls-44, .cls-45, .cls-46 {
        stroke-width: 0px;
      }

      .cls-37, .cls-29, .cls-32 {
        fill: #000;
      }

      .cls-3 {
        stroke-dasharray: 0 0 0 0 0 0 15.09 11.32 15.09 11.32 15.09 11.32;
      }

      .cls-3, .cls-4, .cls-23, .cls-7, .cls-11, .cls-29, .cls-31, .cls-33 {
        stroke-width: 2.83px;
      }

      .cls-22, .cls-10, .cls-14, .cls-28, .cls-32 {
        stroke-width: 2.68px;
      }

      .cls-27 {
        stroke-width: 1.82px;
      }

      .cls-27, .cls-40, .cls-35 {
        fill: #ee8eab;
      }

      .cls-27, .cls-35 {
        stroke: #ee8eab;
      }

      .cls-38 {
        fill: aqua;
      }

      .cls-5, .cls-7, .cls-8, .cls-9, .cls-10, .cls-28, .cls-31, .cls-45 {
        fill: #fff;
      }

      .cls-8, .cls-13, .cls-26, .cls-18, .cls-19, .cls-20, .cls-35 {
        stroke-width: 2.73px;
      }

      .cls-39 {
        fill: #eb6d51;
      }

      .cls-12 {
        stroke-dasharray: 0 0 0 0 0 0 14.38 10.78 14.38 10.78 14.38 10.78;
      }

      .cls-15, .cls-34 {
        stroke: #ea624b;
      }

      .cls-41, .cls-33 {
        fill: #29abe2;
      }

      .cls-29 {
        opacity: .95;
      }

      .cls-42 {
        fill: #5fbc9f;
      }

      .cls-30 {
        stroke: #00a99d;
      }

      .cls-30, .cls-16, .cls-34 {
        stroke-width: 1.8px;
      }

      .cls-30, .cls-46 {
        fill: #00a99d;
      }

      .cls-43 {
        fill: #e74268;
      }

      .cls-44, .cls-19, .cls-34 {
        fill: #ea624b;
      }

      .cls-47 {
        clip-path: url(#clippath);
      }

      .cls-18 {
        stroke-dasharray: 0 0 0 0 0 0 14.54 10.91 14.54 10.91 14.54 10.91;
      }
    </style>
    <clipPath id="clippath">
      <rect class="cls-24" x="444.22" y="85.68" width="16.21" height="16.26" transform="translate(15.86 -57.51) rotate(7.4)"/>
    </clipPath>
  </defs>
  <g id="_ヒト" data-name="ヒト">
    <g>
      <path class="cls-45" d="M3.13,702.94c-1.23-22.89,36.38-33.31,59-39.12,4.01-1.03,82.49-181.89,82.49-181.89l91.61,17.83-120.53,203.98-112.57-.81Z"/>
      <path class="cls-42" d="M3.13,702.94c-.74-13.69,12.4-23.38,28.11-29.43,10.54-4.06,21.64-11.03,30.88-9.69,39.04,5.66,51.11,12.35,64.75,21.01l-11.18,18.92-112.57-.81Z"/>
      <line class="cls-14" x1="3.4" y1="698.63" x2="118.7" y2="698.34"/>
      <line class="cls-14" x1="34.66" y1="673.52" x2="45.3" y2="686.55"/>
      <line class="cls-14" x1="42.4" y1="670.25" x2="54" y2="685.71"/>
      <line class="cls-14" x1="48.46" y1="667.43" x2="63.07" y2="684.83"/>
      <rect class="cls-22" x="1.34" y="702.94" width="117.03" height="8.04"/>
      <path class="cls-22" d="M3.13,702.94c-1.23-22.89,36.38-33.31,59-39.12,4.01-1.03,82.49-181.89,82.49-181.89l91.61,17.83-120.53,203.98-112.57-.81Z"/>
    </g>
    <g>
      <rect class="cls-28" x="413.42" y="702.94" width="98.46" height="8.04"/>
      <path class="cls-45" d="M414.54,702.94l1.97-58.96-75.15-146.24,67.34-35.43,62.03,176.79c6.01,15.99,38.92,48.53,40.03,63.85h-96.23Z"/>
      <path class="cls-42" d="M414.54,702.94l1.41-49.14c11.68-15.4,44.9-15.46,57.19-7.89,0,0,36.53,41.7,37.63,57.03h-96.23Z"/>
      <line class="cls-14" x1="416.01" y1="698.68" x2="509.82" y2="698.68"/>
      <line class="cls-14" x1="471.77" y1="666.29" x2="445.03" y2="667.96"/>
      <line class="cls-14" x1="466.86" y1="660.03" x2="440.11" y2="661.7"/>
      <line class="cls-14" x1="476.03" y1="672.54" x2="449.28" y2="674.21"/>
      <path class="cls-22" d="M414.54,702.94l1.97-58.96-75.15-146.24,67.34-35.43,62.03,176.79c6.01,15.99,38.92,48.53,40.03,63.85h-96.23Z"/>
    </g>
    <g>
      <path class="cls-45" d="M116.93,491.39c14.25-52.92,50.79-100.96,74.6-132.98l108.81-7.24s-46.3,139.31-80.22,193.98c-32.31-14.53-77.91-35.89-103.19-53.76Z"/>
      <path class="cls-45" d="M345.83,539.18c-24.68-56-70.26-149.17-79.38-188.02l67.32-40.12s79.73,127.61,98.22,178.87c-31.94,15.32-60.16,36.79-86.16,49.26Z"/>
      <polygon class="cls-45" points="266.45 433.55 260.07 391 284.79 384.31 295.3 423.12 266.45 433.55"/>
    </g>
    <g>
      <path class="cls-37" d="M168.23,389.15c-8.25,12.39-16.05,25.09-23.37,38.06-7.31,12.97-14.15,26.21-20.48,39.69-3.56,7.58-6.96,15.23-10.2,22.95-.24.56.17,1.21.62,1.51,13.11,8.7,26.4,17.15,40.1,24.89,12.79,7.23,25.94,13.79,39.38,19.71,8.41,3.7,16.92,7.17,25.49,10.48.53.21,1.25-.14,1.51-.62,8.35-15.12,16.03-30.6,23.24-46.29s14.11-31.96,20.61-48.18c3.64-9.07,7.17-18.18,10.63-27.32.26-.68-.28-1.47-.94-1.65-.75-.21-1.39.26-1.65.94-6.15,16.26-12.54,32.43-19.32,48.44s-13.86,31.68-21.54,47.17c-4.26,8.61-8.7,17.13-13.35,25.55l1.51-.62c-14.56-5.62-28.94-11.73-42.94-18.65-13.18-6.51-25.98-13.74-38.48-21.45-7.73-4.76-15.34-9.7-22.91-14.72l.62,1.51c5.75-13.66,12.02-27.11,18.76-40.31s13.9-26.01,21.56-38.61c4.34-7.14,8.83-14.19,13.46-21.14.96-1.44-1.36-2.78-2.31-1.35h0Z"/>
      <path class="cls-37" d="M266.62,429.3c.33-.4.68-.78,1.06-1.13.19-.18.38-.35.58-.51.09-.08.19-.15.28-.23-.18.14.15-.11.22-.16.93-.67,1.93-1.23,2.96-1.73s2.11-.91,3.37-1.31,2.56-.75,3.86-1.04c5.25-1.17,10.61-1.59,16.06-1.53,1.27.01,2.53.06,3.8.14.55.04,1.1.08,1.64.14.25.03.5.05.74.08.09.01.5.07.11.01.12.02.24.03.35.05.71.11,1.44-.18,1.65-.94.17-.63-.22-1.54-.94-1.65-4.75-.71-9.63-.66-14.41-.29-5.68.44-11.46,1.35-16.72,3.62-2.43,1.05-4.83,2.49-6.51,4.57-.46.56-.55,1.35,0,1.9.47.47,1.44.56,1.9,0h0Z"/>
      <path class="cls-37" d="M291.27,421.47c3.42,7.39,6.77,14.81,10.1,22.24,3.51,7.85,6.99,15.72,10.46,23.59s7.03,15.98,10.54,23.97,6.97,15.81,10.49,23.7,6.72,14.99,10.15,22.45c.41.89.82,1.78,1.23,2.66.31.67,1.25.8,1.83.48,10.17-5.54,20.28-11.17,30.35-16.9,10.06-5.73,20.07-11.55,30.03-17.46,5.61-3.34,11.21-6.7,16.79-10.09,1.47-.9.13-3.21-1.35-2.31-9.89,6.02-19.84,11.94-29.84,17.77s-20.06,11.57-30.17,17.21c-5.7,3.18-11.42,6.34-17.16,9.46l1.83.48c-3.42-7.39-6.77-14.81-10.1-22.24-3.51-7.85-6.99-15.72-10.46-23.59s-7.03-15.98-10.54-23.97-6.97-15.81-10.49-23.7-6.72-14.99-10.15-22.45c-.41-.89-.82-1.78-1.23-2.66-.3-.66-1.25-.82-1.83-.48-.67.39-.79,1.17-.48,1.83h0Z"/>
      <path class="cls-37" d="M351.73,341.43c5.9,9.29,11.66,18.66,17.27,28.12s11.08,19.01,16.4,28.64,10.49,19.34,15.52,29.13,9.85,19.57,14.55,29.47,9.29,19.95,13.7,30.03c.55,1.26,1.1,2.52,1.65,3.78l.48-1.83c-1.56.75-3.12,1.5-4.67,2.26-.65.31-.83,1.24-.48,1.83.39.67,1.18.8,1.83.48,1.56-.75,3.12-1.5,4.67-2.26.71-.34.75-1.21.48-1.83-4.38-10.09-8.9-20.12-13.59-30.08s-9.52-19.84-14.5-29.65c-4.99-9.81-10.12-19.54-15.41-29.19s-10.67-19.14-16.22-28.58-11.3-18.88-17.17-28.19c-.73-1.16-1.47-2.33-2.21-3.49-.92-1.45-3.24-.11-2.31,1.35h0Z"/>
    </g>
    <path class="cls-42" d="M351.45,329.27c-5.13-19.44-22.43-55.18-36.53-82.64,8.9-17.46,6.76-50.45-9.26-67.54-13.55-14.45-57.03-24.9-85.24-24.31-13.4-1.01-25.94.74-35.45,3.64-3.85,1.18-7.9,2.95-11.99,5.19-.03,0-.07-.02-.1-.03-33.12-6.54-108.39,60.09-108.39,60.09,0,0,20.03,60.59,31.32,76.95,9.72-5.09,23.04-12.83,37.01-21.23,6.38,39.41,17.91,83.68,28.28,102.98,51.98,0,154.8-34.39,190.37-53.1Z"/>
    <g>
      <path class="cls-37" d="M131.1,279.18c4.45,19.57,9.22,39.07,14.54,58.42,2.67,9.72,5.48,19.4,8.53,29.01,1.42,4.48,2.9,8.94,4.44,13.38.53,1.51,1.14,3.92,2.92,4.4.87.23,1.96.07,2.85.05,1.08-.02,2.16-.04,3.24-.08,17.97-.6,35.84-3.69,53.34-7.69,20.04-4.58,39.76-10.51,59.24-17.06,20.1-6.76,39.96-14.23,59.66-22.07,2.34-.93,4.68-1.87,7.02-2.81,1.58-.64.89-3.23-.71-2.58-19.31,7.78-38.75,15.24-58.42,22.06s-38.88,12.83-58.73,17.78c-17.67,4.4-35.66,7.97-53.84,9.29-4.07.3-8.16.47-12.24.49-.19,0-.39-.01-.58,0-.67.05-.01.06-.04.02-.22-.31-.4-.64-.55-.99-.44-1-.75-2.07-1.11-3.11-.74-2.15-1.46-4.3-2.17-6.46-3.06-9.32-5.87-18.73-8.54-28.18-5.42-19.2-10.25-38.57-14.75-58.01-.51-2.19-1.01-4.39-1.51-6.58-.38-1.68-2.97-.97-2.58.71h0Z"/>
      <path class="cls-37" d="M228.85,157.38c10.58.39,21.19,1.07,31.6,3.03,9.42,1.77,18.67,4.59,27.17,9.06,7.92,4.16,15.14,9.7,20.72,16.74s8.93,14.88,10.64,23.3,1.49,17.34-.79,25.67c-.29,1.04-.6,2.07-.95,3.09-.55,1.64,2.03,2.34,2.58.71,2.92-8.6,3.6-17.83,2.32-26.81s-4.55-17.49-9.65-24.84-12.39-13.75-20.34-18.41c-8.33-4.89-17.52-8.17-26.92-10.26-10.62-2.36-21.5-3.3-32.34-3.8-1.35-.06-2.7-.12-4.04-.17-1.72-.06-1.72,2.62,0,2.68h0Z"/>
      <path class="cls-45" d="M294.15,209.82c4.26,7.48,8.41,15.02,12.43,22.63s7.97,15.35,11.77,23.11,7.44,15.52,10.98,23.37,6.92,15.68,10.19,23.6,6.48,16.03,9.52,24.12c.37.99.75,1.99,1.12,2.98.25.68.91,1.14,1.65.94.65-.18,1.19-.97.94-1.65-3.02-8.1-6.16-16.16-9.43-24.16s-6.69-16.02-10.23-23.95-7.16-15.74-10.93-23.52-7.66-15.5-11.67-23.16-8.18-15.32-12.45-22.88c-.52-.92-1.05-1.85-1.57-2.77-.85-1.5-3.17-.15-2.31,1.35h0Z"/>
      <path class="cls-37" d="M87.51,287.01c1.6,3.97,3.12,7.99,4.81,11.92.67,1.56,1.91,3.16,3.8,3.04,1.07-.07,2.03-.62,2.98-1.07.89-.42,1.78-.85,2.67-1.29,7.12-3.5,14-7.48,20.6-11.89,3.75-2.51,7.41-5.17,10.97-7.95.57-.45.47-1.43,0-1.9-.56-.56-1.32-.45-1.9,0-5.89,4.6-12.09,8.82-18.51,12.64-3.2,1.9-6.45,3.7-9.76,5.4-1.62.83-3.25,1.64-4.9,2.42-.66.31-1.51.91-2.25.95-.47.03-.79-.55-1.04-1-.42-.78-.71-1.64-1.04-2.46l-1.28-3.18-2.56-6.36c-.27-.67-.89-1.14-1.65-.94-.64.18-1.21.97-.94,1.65h0Z"/>
    </g>
    <path class="cls-32" d="M227.58,114.67c-.87-.44-1.79-.72-2.73-.88,3.45-7.86,1.69-16.34-4.2-19.31-2.27-1.15-4.84-1.31-7.39-.66-.92-4.72-3.55-8.7-7.64-10.77-7.48-3.78-17.19.15-22.53,8.79-.99-1.7-2.37-3.08-4.12-3.97-6.17-3.11-14.5.97-18.62,9.13-1.46,2.88-2.18,5.88-2.24,8.7-1.28-.89-2.72-1.49-4.29-1.7-6.85-.92-13.38,5.67-14.6,14.72s3.34,17.14,10.19,18.06,13.38-5.67,14.6-14.72c.21-1.59.24-3.14.12-4.63,5.29,2.62,12.14-.03,16.58-5.97,1.31,3.32,3.58,6.04,6.72,7.63,4.19,2.12,9.08,1.8,13.51-.4.99,2.32,2.61,4.21,4.81,5.32.87.44,1.79.72,2.73.88-3.45,7.86-1.69,16.34,4.2,19.31,6.17,3.11,14.5-.97,18.62-9.13,4.12-8.15,2.46-17.29-3.7-20.41Z"/>
    <path class="cls-10" d="M235.39,137.85c-1.08-5.6-7.74-9.11-15.35-8.4-6.19-12.35-19.24-20.87-34.34-20.87-21.08,0-38.17,16.6-38.17,37.08s17.09,37.08,38.17,37.08c19,0,34.74-13.48,37.68-31.12,7.82-1.96,13.14-7.93,12.01-13.76Z"/>
    <path class="cls-37" d="M158.18,118.42c-1.2-3.37,8.71-9.99,22.15-14.79,13.44-4.8,23.15-3.81,26.51-2.6,11.54,4.17-.19,10.83-22.15,14.79-14.04,2.53-25.31,5.96-26.51,2.6Z"/>
    <path class="cls-37" d="M220.63,126.8c-3.36,7.39-8.7,4.9-11.64.97-1.96-2.63-2.56-8.43-4.88-11.44s-6.36-3.21-8.25-4.56c-6.88-4.92,13.75-6.55,18.61,5.92,1.95,5.02,9.48,1.82,6.17,9.11Z"/>
    <path class="cls-37" d="M157.81,121.55c5.87-.16,11.73-.8,17.49-1.92,2.86-.56,5.7-1.24,8.5-2.03s5.51-1.81,8.34-2.42c2.38-.51,4.87-.63,7.2.15,2.12.71,3.63,2.24,4.63,4.21s1.53,4.27,2.22,6.41c.59,1.83,1.43,3.4,2.83,4.75,1.59,1.54,3.6,2.65,5.83,2.85,2.47.23,4.73-1.08,6.22-2.98.44-.57.56-1.34,0-1.9-.46-.46-1.45-.57-1.9,0-.62.8-1.34,1.52-2.28,1.93-.63.27-1.34.37-2.18.25.19.03-.05-.01-.07-.02-.12-.02-.24-.05-.35-.08-.21-.05-.42-.11-.63-.19-.31-.11-.62-.25-1.01-.47-.79-.45-1.3-.85-1.93-1.5-.59-.6-.92-1.02-1.34-1.81-.08-.15-.15-.29-.22-.44.1.22.02.04,0,0-.05-.12-.09-.25-.13-.38-.2-.57-.38-1.15-.55-1.73-.67-2.22-1.29-4.5-2.44-6.54s-2.98-3.75-5.24-4.68-4.83-1.09-7.26-.78c-2.84.37-5.53,1.28-8.26,2.12s-5.53,1.58-8.34,2.2c-6.29,1.38-12.69,2.14-19.12,2.31-1.72.05-1.73,2.73,0,2.68h0Z"/>
    <g>
      <path class="cls-45" d="M48.46,299.93h0c-19.81-10.85-20.61-19.95-14.4-35.1,0,0,23.93-64.86,37.17-85.24,4.28-6.58,38.02-50.14,50.69-39.16,8.68,7.52-.59,46.25-6.8,61.41l-27.98,81.9c-6.21,15.15-15.84,24.19-38.68,16.19Z"/>
      <path class="cls-45" d="M116.74,134.3l33.02-27.06c8.3-6.34,11.17,1.57,7.16,6.83l-33.13,29.45c-2.55,1.95-6.19,1.46-8.14-1.09h0c-1.95-2.55-1.46-6.19,1.09-8.14Z"/>
      <path class="cls-45" d="M109.74,151.51l33.02-27.06c8.3-6.34,11.17,1.57,7.16,6.83l-33.13,29.45c-2.55,1.95-6.19,1.46-8.14-1.09h0c-1.95-2.55-1.46-6.19,1.09-8.14Z"/>
      <path class="cls-45" d="M135.13,146.26c-.03,2.75,2.06,5.39,3.8,6.35,2.88.74,5.84-.62,8.5-1.94,3.62-1.8,7.24-3.6,10.86-5.39,2.55,2.27,2.93,6.28,1.71,9.47s-3.72,5.7-6.33,7.9c-3.54,3-7.39,5.62-10.99,8.56-10.14,8.3-18.19,19.11-29.12,26.35-.7.46-1.51.92-2.32.71-.88-.24-1.35-1.17-1.68-2.02-1.92-4.99-2.61-10.45-2.54-15.86,2.15-8.2.55-17.17,3.56-25.09,2.43-6.4,7.68-11.41,13.58-14.87,1.81-1.06,3.81-2.02,5.9-1.88s4.21,1.78,4.18,3.87c-.02,1.15-.61,2.45.88,3.84Z"/>
    </g>
    <path class="cls-37" d="M123.34,172.27c2.17-4.14,3.47-8.66,3.84-13.32.09-1.15.12-2.3.08-3.45-.03-1.02-.24-2.16.05-3.16.24-.82.97-1.38,1.64-1.85.95-.66,1.92-1.3,2.87-1.96,3.97-2.76,7.83-5.69,11.56-8.78,1.79-1.48,3.57-2.99,5.29-4.56,1.56-1.42,3.08-3,4.06-4.89s1.37-4.07.85-6.19-1.88-3.76-3.88-4.55v2.58c6.43-1.9,10.66-8.82,9.5-15.41-.34-1.91-1.4-3.66-3.48-3.89-1.84-.21-3.61.84-5,1.92-3.46,2.69-6.83,5.51-10.22,8.29-6.76,5.54-13.46,11.14-20.11,16.8s-13.31,11.44-19.89,17.25-13.1,11.69-19.56,17.62c-.8.74-1.6,1.47-2.4,2.21-1.27,1.17.63,3.06,1.9,1.9,6.13-5.65,12.3-11.24,18.53-16.78s12.5-11.02,18.82-16.45,12.69-10.8,19.11-16.11c3.19-2.64,6.4-5.27,9.62-7.89,1.62-1.32,3.25-2.64,4.88-3.95,1.08-.87,2.47-2.15,3.92-2.14.46,0,.81.27,1.02.81.26.67.35,1.39.38,2.07.08,1.46-.13,2.8-.61,4.19-.9,2.61-2.79,4.91-5.23,6.23-.61.33-1.22.58-1.89.78-1.35.4-1.18,2.12,0,2.58s1.85,1.75,2.09,3.07c.27,1.48-.2,3.04-1.05,4.42-1,1.62-2.43,2.94-3.85,4.2-1.71,1.53-3.46,3.01-5.23,4.47-3.51,2.87-7.13,5.6-10.86,8.18-1.67,1.16-3.78,2.21-4.86,4-1.17,1.95-.6,4.42-.64,6.57-.09,4.82-1.32,9.59-3.56,13.86-.8,1.53,1.51,2.88,2.31,1.35h0Z"/>
    <path class="cls-37" d="M135.24,149.06c1.1,2.53,4.14,3.69,6.75,3.44,3.3-.32,6.33-2.17,9.25-3.6,1.56-.76,3.12-1.52,4.69-2.28.37-.18.74-.36,1.12-.54.23-.11.65-.37.91-.32.42.08.65.72.82,1.06,1.21,2.33,1.29,5.3.25,7.71-1.11,2.59-3.43,4.42-5.57,6.13-2.52,2.02-5.02,4.08-7.49,6.17-4.96,4.2-9.8,8.55-14.51,13.03-5.33,5.07-10.49,10.31-15.48,15.71-1.17,1.27.72,3.17,1.9,1.9,9.03-9.78,18.64-19.03,28.75-27.69,2.53-2.16,5.09-4.29,7.68-6.38,2.36-1.9,4.85-3.77,6.45-6.4s2.02-5.81,1.36-8.77c-.32-1.44-.94-3.1-1.97-4.19-1.36-1.44-3.11-.92-4.67-.17-1.79.86-3.57,1.73-5.36,2.6s-3.42,1.74-5.18,2.48c-2.37,1-6.1,1.67-7.38-1.26-.29-.66-1.26-.82-1.83-.48-.68.4-.77,1.17-.48,1.83h0Z"/>
    <path class="cls-37" d="M75.98,170.75c-5.67,7.12-10.33,14.94-14.35,23.1s-7.5,16.74-10.88,25.27c-3.77,9.48-7.52,18.97-11.28,28.45-1.9,4.79-3.8,9.58-5.69,14.36-.95,2.39-1.9,4.79-2.85,7.18s-1.97,4.55-2.56,6.93-.41,4.73.59,6.99c.88,1.98,2.24,3.74,3.61,5.41,2.57,3.13,5.62,5.85,8.96,8.13,6.72,4.58,14.76,7.26,22.89,7.52,4.35.13,8.95-.44,12.75-2.72,3.48-2.08,5.91-5.45,7.64-9.04,1.92-3.98,3.22-8.25,4.66-12.41,1.68-4.86,3.37-9.72,5.05-14.58,3.37-9.72,6.74-19.44,10.11-29.17s6.74-19.44,10.11-29.17c.83-2.39,1.66-4.78,2.48-7.17.24-.68-.27-1.47-.94-1.65-.74-.2-1.41.25-1.65.94-3.3,9.52-6.6,19.03-9.89,28.55s-6.6,19.03-9.89,28.55-6.53,18.88-9.81,28.31c-1.26,3.61-2.61,7.27-4.85,10.41s-5.59,5.22-9.45,6.02-7.98.58-11.82-.12-7.56-1.91-11.03-3.65-6.67-3.9-9.51-6.51c-1.45-1.33-2.8-2.76-4.04-4.29s-2.55-3.23-3.22-5.12c-.76-2.12-.38-4.17.36-6.24.82-2.33,1.8-4.61,2.71-6.91,1.85-4.67,3.7-9.33,5.55-14,3.72-9.37,7.43-18.75,11.15-28.12,3.33-8.4,6.6-16.84,10.35-25.06s7.8-15.94,12.87-23.22c1.21-1.73,2.46-3.43,3.78-5.08.45-.57.55-1.34,0-1.9-.47-.47-1.44-.57-1.9,0h0Z"/>
    <g>
      <path class="cls-37" d="M177.59,160.29c6.96-3.57,15.58-4.51,23.07-2.19,1.65.51,2.36-2.08.71-2.58-8.19-2.54-17.56-1.43-25.14,2.46-.64.33-.83,1.23-.48,1.83.38.65,1.19.81,1.83.48h0Z"/>
      <path class="cls-37" d="M178.78,144.58c.1.37.17.73.22,1.11l-.05-.36c.1.78.1,1.56,0,2.35l.05-.36c-.06.43-.15.86-.27,1.28-.19.67.23,1.49.94,1.65s1.44-.21,1.65-.94c.5-1.77.51-3.67.04-5.45-.18-.68-.96-1.16-1.65-.94s-1.13.92-.94,1.65h0Z"/>
      <path class="cls-37" d="M168.2,147.21c-.32-1.32.53-3.27,2.67-3.18,1.36.06,1.78.7,2.1,2.02s-.49,2.65-1.8,2.97-2.65-.49-2.97-1.8Z"/>
      <path class="cls-37" d="M189.17,143.93c-.32-1.32,0-2.43,1.28-2.84,1.73-.55,3.17.36,3.49,1.68s-.49,2.65-1.8,2.97-2.65-.49-2.97-1.8Z"/>
    </g>
    <path class="cls-37" d="M148.83,522.33c-4.32,3.03-8.65,6.07-12.97,9.1-.93.66-.04,2.21.9,1.54,4.32-3.03,8.65-6.07,12.97-9.1.93-.66.04-2.21-.9-1.54h0Z"/>
    <path class="cls-37" d="M395.86,521.5c2.2,2.76,5.16,4.84,8.47,6.05.45.17.98-.19,1.1-.62.14-.5-.17-.93-.62-1.1-3.03-1.11-5.68-3.08-7.68-5.59-.3-.38-.95-.31-1.26,0-.37.37-.3.88,0,1.26h0Z"/>
    <path class="cls-37" d="M162.62,401.44c7.56-1.54,15.03-4.33,21.32-8.87,1.68-1.22,3.28-2.55,4.75-4.02.82-.81-.45-2.08-1.26-1.26-5.22,5.19-11.94,8.65-18.93,10.82-2.09.65-4.21,1.18-6.35,1.62-1.13.23-.65,1.95.47,1.72h0Z"/>
    <path class="cls-37" d="M341.65,349.66c4.09.72,8.24,1.13,12.38,1.38s8.62.34,12.92.13c1.14-.05,1.15-1.84,0-1.79-4.23.2-8.48.12-12.71-.12s-8.12-.62-12.12-1.32c-1.12-.2-1.61,1.52-.47,1.72h0Z"/>
    <path class="cls-37" d="M255.73,372c1.34,5.09,2.8,10.15,4.38,15.18.76,2.41,1.47,4.85,2.37,7.21.79,2.06,2,3.77,4.08,4.67s4.46,1,6.73,1.01c1.15,0,1.15-1.79,0-1.79-1.86,0-3.77-.04-5.54-.66-1.96-.69-3.01-2.21-3.69-4.11-1.63-4.57-3.01-9.25-4.37-13.91-.78-2.68-1.52-5.38-2.24-8.08-.29-1.11-2.02-.64-1.72.47h0Z"/>
    <path class="cls-37" d="M267.19,367.8c1.73,12.27,4.33,24.41,7.8,36.3.98,3.38,2.04,6.73,3.15,10.07.36,1.08,2.09.62,1.72-.47-3.94-11.75-7.04-23.77-9.27-35.96-.63-3.46-1.19-6.93-1.68-10.41-.07-.48-.68-.74-1.1-.62-.52.14-.69.62-.62,1.1h0Z"/>
    <g>
      <path class="cls-37" d="M790.21,618.41l-3.36,3.89c-3.37,16.81,31.28,46.07,10.29,70.39l-86.19-75.58,32.71-36.67"/>
      <line class="cls-23" x1="798.54" y1="687.5" x2="714.58" y2="613.01"/>
      <line class="cls-11" x1="795.57" y1="645.2" x2="778.07" y2="648.28"/>
      <line class="cls-11" x1="791.63" y1="637.25" x2="771.69" y2="641.6"/>
      <line class="cls-11" x1="788.73" y1="630.81" x2="765.05" y2="634.64"/>
      <path class="cls-4" d="M790.21,618.41l-3.36,3.89c-.97,14.36,31.28,46.07,10.29,70.39l-86.19-75.58,32.71-36.67"/>
      <rect class="cls-7" x="692.1" y="654.12" width="117.91" height="7.55" transform="translate(612.29 -330.87) rotate(40.79)"/>
    </g>
    <g>
      <path class="cls-37" d="M1125.76,634.03l1.32,4.97c11.97,12.28,55.68.18,63.91,31.23l-111.04,28.49-11.81-47.7"/>
      <line class="cls-23" x1="1187.49" y1="666.15" x2="1078.62" y2="693.41"/>
      <line class="cls-11" x1="1150.9" y1="644.73" x2="1143.57" y2="660.91"/>
      <line class="cls-11" x1="1142.12" y1="643.49" x2="1134.45" y2="662.4"/>
      <line class="cls-11" x1="1135.17" y1="642.25" x2="1124.96" y2="663.96"/>
      <path class="cls-4" d="M1125.76,634.03l1.32,4.97c11.3,8.9,55.68.18,63.91,31.23l-111.04,28.49-11.81-47.7"/>
      <rect class="cls-7" x="1077.3" y="684.87" width="117.91" height="7.55" transform="translate(-138.49 314.03) rotate(-14.84)"/>
    </g>
    <path class="cls-33" d="M1081.63,450.77c-13.38-21.54-55.23-104.11-98.03-162.84v-2.39l-31.26-2.34-69.59-5.21c-11.65,49.96-30.85,132.69-42.94,161.96-23.63,31.61-108.65,136.6-108.65,136.6l82.18,67.92c27.44-42.67,94.69-141.95,103-162.32,4.84-11.87,16.22-44.17,29.19-82.16,23.64,32.84,45,68.38,57.02,87.94,11.71,37.7,46.74,168.17,46.74,168.17l103.24-26.62c-18.42-47.27-59.27-160.01-70.88-178.69Z"/>
    <path class="cls-45" d="M986.17,329.72c-3.17.17-6.33.92-9.32,1.94-3.24,1.1-6.47,2.55-9.22,4.61-1.41,1.06-2.68,2.24-3.65,3.72s1.45,2.94,2.44,1.43c.08-.13.17-.25.26-.38.04-.05.08-.11.12-.16-.04.05-.15.18.03-.03.21-.25.42-.49.65-.73.48-.5,1-.96,1.55-1.39-.11.08.23-.17.27-.2.15-.11.3-.22.45-.32.31-.22.63-.42.95-.62.67-.42,1.36-.8,2.06-1.16,2.8-1.44,5.83-2.49,8.93-3.2.82-.19,1.64-.35,2.47-.47.07-.01.15-.02.22-.03.27-.04-.33.04.13-.02.17-.02.33-.04.5-.06.38-.04.76-.07,1.15-.09.76-.04,1.41-.62,1.41-1.41,0-.73-.65-1.46-1.41-1.41h0Z"/>
    <g>
      <path class="cls-38" d="M965.19,340.7c-7.41,19.67-11.88,35.71-18.45,55.68"/>
      <path class="cls-45" d="M963.83,340.32c-5.34,14.17-9.82,28.63-14.39,43.06-1.33,4.21-2.68,8.42-4.06,12.62-.24.73.28,1.55.99,1.74.77.21,1.5-.26,1.74-.99,4.73-14.38,9.02-28.9,13.96-43.21,1.44-4.18,2.94-8.33,4.49-12.47.27-.72-.3-1.55-.99-1.74-.79-.22-1.47.27-1.74.99h0Z"/>
    </g>
    <g>
      <path class="cls-45" d="M770.26,335.19c3.25-14.5,17.36-55.11,17.36-55.11,3.9-11.06,16.02-16.86,27.07-12.97h0c11.06,3.9,16.86,16.02,12.97,27.07l-19.75,56.05c-3.9,11.06-16.02,16.86-27.07,12.97h0c-11.06-3.9-13.54-14.79-10.58-28.01Z"/>
      <path class="cls-45" d="M769.14,341.74l-2.52,22.4c-2.2,12.92,3.38,21.84,16.39,24.53h0c20.52,4.25,34.42-3.21,36.63-16.13l-5.91-20.97c2.2-12.92-6.56-25.57-19.56-28.26h0c-13.01-2.69-22.82,5.52-25.02,18.44Z"/>
      <path class="cls-45" d="M818.01,353.74s9.07,8.77,12.01,12.23c4.39,5.16,10.46,14.44,6.36,19.48-2.11,2.59-8.75,4.62-17.76-3.42-3.82-3.4-13.95-14.95-13.95-14.95-3.64-3.64-3.64-9.55,0-13.19l.15-.15c3.64-3.64,9.55-3.64,13.19,0Z"/>
      <path class="cls-45" d="M779.36,369.29l7.09,37.54c.75,3.97.35,8.53-2.05,9.48-2.48.98-7.57-1.02-10.5-6.9-4.26-8.55-9.37-37.32-9.37-37.32-.75-3.97,1.86-7.79,5.83-8.54l.46-.09c3.97-.75,7.79,1.86,8.54,5.83Z"/>
      <path class="cls-45" d="M795.24,381.62l7.09,37.54c.75,3.97.82,9.8-3.47,10.43-4.78.7-10.61-3.66-11.36-7.63l-7.09-37.54c-.75-3.97,1.86-7.79,5.83-8.54l.46-.09c3.97-.75,7.79,1.86,8.54,5.83Z"/>
      <path class="cls-45" d="M809.46,384.01l7.09,37.54c.75,3.97-1.86,7.79-5.83,8.54l-.46.09c-3.97.75-6.3-4.79-7.34-7.16-2.48-5.67-8.29-36.21-8.29-36.21-.75-3.97,1.86-7.79,5.83-8.54l.46-.09c3.97-.75,7.79,1.86,8.54,5.83Z"/>
    </g>
    <rect class="cls-45" x="797.5" y="214.96" width="42.45" height="101.88" rx="21.22" ry="21.22" transform="translate(190.86 -322.99) rotate(25.17)"/>
    <g>
      <path class="cls-37" d="M800.99,249.73c-4.46,7.44-8.54,15.11-12.21,22.97s-6.98,15.99-9.85,24.23-5.3,16.53-7.31,24.97-3.59,17.01-4.74,25.62-1.86,17.25-2.12,25.93c-.03,1.08-.06,2.17-.08,3.25-.03,1.82,2.8,1.82,2.83,0,.15-8.6.73-17.19,1.76-25.73s2.5-16.99,4.39-25.37,4.21-16.68,6.94-24.84,5.83-16.09,9.36-23.88c3.54-7.84,7.49-15.49,11.82-22.92.55-.94,1.1-1.87,1.66-2.8.94-1.57-1.51-2.99-2.44-1.43h0Z"/>
      <path class="cls-37" d="M764.98,379.87c.77,6.56,2.02,13.05,3.79,19.41,1.6,5.73,3.26,11.9,8,15.88,2.35,1.98,5.15,3.4,8.18,4.01.75.15,1.53-.22,1.74-.99.19-.7-.24-1.59-.99-1.74-4.94-1-8.98-4.26-11.13-8.79-1.27-2.67-2.06-5.6-2.87-8.44-.86-3.02-1.61-6.06-2.24-9.14-.69-3.38-1.25-6.78-1.65-10.2-.09-.76-.59-1.41-1.41-1.41-.7,0-1.5.65-1.41,1.41h0Z"/>
      <path class="cls-37" d="M782.02,400.4c.54,5.74,1.44,11.51,3.13,17.03s4.5,11.97,10.49,13.98c3.57,1.2,8.43-.46,9.12-4.57.13-.75-.2-1.52-.99-1.74-.68-.19-1.61.23-1.74.99-.2,1.2-.92,2.02-2.06,2.55s-2.48.46-3.76-.02c-1.36-.51-2.56-1.45-3.55-2.49-.78-.82-1.24-1.49-1.87-2.55-2.66-4.5-3.9-9.93-4.83-15.12-.5-2.8-.82-5.23-1.09-8.06-.07-.76-.6-1.41-1.41-1.41-.71,0-1.49.65-1.41,1.41h0Z"/>
      <path class="cls-37" d="M798.35,405.58c.39,3.81,1.05,7.62,1.84,11.37.44,2.09.93,4.17,1.57,6.2.48,1.55,1.02,3.21,1.97,4.55,1.51,2.12,3.97,3.59,6.57,3.82,2.9.25,5.17-1.68,5.96-4.39.44-1.49.53-3.11.65-4.65.14-1.75.22-3.5.24-5.25.04-3.46-.15-6.93-.49-10.37-.77-7.8-2.29-15.5-3.82-23.18-.15-.75-1.04-1.18-1.74-.99-.78.21-1.14.99-.99,1.74,2.53,12.66,5.08,25.56,3.93,38.54-.12,1.3-.18,2.73-.69,3.96-.2.47-.48.89-.87,1.22-.29.25-.59.38-1.01.48-.79.19-1.77.03-2.71-.37-.87-.37-1.75-1.03-2.42-1.79-.07-.08-.15-.17-.22-.26.17.22,0,0-.02-.04-.07-.11-.14-.21-.21-.32-.18-.29-.33-.6-.48-.91-.04-.08-.21-.47-.15-.33.09.21-.06-.15-.06-.15-.03-.07-.06-.15-.09-.22-.17-.43-.32-.87-.47-1.32-.62-1.87-1.09-3.78-1.51-5.71-.5-2.25-.92-4.52-1.29-6.8-.15-.95-.3-1.91-.43-2.87,0-.06-.06-.45-.01-.08-.01-.11-.03-.22-.04-.33-.02-.17-.04-.34-.06-.51-.04-.35-.08-.7-.12-1.05-.08-.76-.59-1.41-1.41-1.41-.7,0-1.49.65-1.41,1.41h0Z"/>
      <path class="cls-37" d="M814.7,383.25c.18-.28.37-.56.58-.83l-.22.29c.55-.7,1.18-1.33,1.88-1.88l-.29.22c.22-.17.46-.34.69-.49.31-.2.55-.48.65-.85.09-.34.05-.79-.14-1.09s-.48-.57-.85-.65-.77-.07-1.09.14c-1.47.97-2.71,2.22-3.66,3.71-.4.63-.15,1.59.51,1.94.7.37,1.51.16,1.94-.51h0Z"/>
      <path class="cls-37" d="M817.56,381.7c3.02,3,6.38,6.28,10.71,7.14,3.95.79,8.5-.4,10.41-4.25s.78-8.56-1.54-12.12c-1.29-1.98-2.86-3.78-4.41-5.56s-3.2-3.62-4.85-5.38c-3.73-3.98-7.62-7.8-11.64-11.48-1.34-1.23-3.35.77-2,2,6.56,6.02,12.88,12.39,18.53,19.27,2.28,2.77,4.55,6.2,4.02,9.92-.22,1.55-.97,3.08-2.27,3.95s-2.85,1.15-4.44,1.06c-4.27-.25-7.64-3.68-10.53-6.55-1.29-1.28-3.3.72-2,2h0Z"/>
      <path class="cls-37" d="M816.41,349.19c-.48-4.09-1.34-8.12-2.64-12.03-.24-.72-.98-1.2-1.74-.99-.71.19-1.23,1.01-.99,1.74,1.22,3.66,2.1,7.44,2.54,11.28.09.76.59,1.41,1.41,1.41.7,0,1.5-.65,1.41-1.41h0Z"/>
      <path class="cls-37" d="M814.68,334.87c3.09-9.51,6.52-18.9,10.31-28.16s7.91-18.28,12.37-27.17c2.09-4.17,4.25-8.76,8.09-11.63.61-.46.92-1.22.51-1.94-.35-.6-1.32-.97-1.94-.51-3.65,2.73-6.01,6.59-8.06,10.59-2.3,4.48-4.48,9.02-6.6,13.59-4.28,9.26-8.2,18.68-11.76,28.24-2,5.37-3.88,10.78-5.65,16.23-.24.73.28,1.54.99,1.74.77.21,1.5-.26,1.74-.99h0Z"/>
    </g>
    <g>
      <path class="cls-45" d="M1009.77,216.45s22.63-40.9,39.25-67.89c11.46-18.63,21.36-17.63,34.43-9.49,12.52,7.8,9.95,14.1,7.33,21.49-6.89,19.4-25.05,61-43.2,79.16-10.75,10.75-20.09,13.69-30.53,7.27h0c-10.44-6.42-13.69-20.09-7.27-30.53Z"/>
      <path class="cls-45" d="M1061.85,109.39c9.42-18.16,28.02-19.73,41.46-8.08,11.19,9.7,10.22,30.84.04,37.6-7.59,5.04-17.04,28.47-32.17,19.94-17.69-9.98-16.4-35.82-9.33-49.45Z"/>
      <path class="cls-45" d="M1059.95,102.14l-5.96-14.08c-1.63-3.84.17-8.27,4.01-9.89h0c3.84-1.63,7.81,1.84,9.44,5.68l6.42,12.41c1.63,3.84-.17,8.27-4.01,9.89h0c-3.84,1.63-8.27-.17-9.89-4.01Z"/>
      <path class="cls-45" d="M1085.98,92.96l11.22-23.88c1.63-3.47,5.76-4.96,9.23-3.33h0c3.47,1.63,4.96,5.76,3.33,9.23,0,0-7.23,18.63-11.22,23.88-1.48,1.95-5.76,4.96-9.23,3.33h0c-3.47-1.63-4.96-5.76-3.33-9.23Z"/>
      <path class="cls-45" d="M1101.25,92.97s14.94-12.88,21.11-15.21c2.83-1.07,7.41-2.29,9.71.77h0c2.3,3.06,1.68,7.41-1.39,9.71l-21.11,15.83c-3.06,2.3-7.41,1.68-9.71-1.39h0c-2.3-3.06-1.68-7.41,1.39-9.71Z"/>
      <rect class="cls-45" x="1117.89" y="81.95" width="13.87" height="40.26" rx="6.94" ry="6.94" transform="translate(703.43 -945.81) rotate(62.91)"/>
      <path class="cls-45" d="M1111.34,113.53c5.61-.6,26.5.81,26.5.81,3.81-.41,7.58,1.75,8.09,3.94.56,2.39-2.35,7.23-6.16,7.64l-30.7,4.27c-7.46,0-2.76-3.8-3.17-7.61h0c-.41-3.81,3-8.79,5.44-9.05Z"/>
    </g>
    <rect class="cls-45" x="981.45" y="143.33" width="47.69" height="116.97" rx="18.39" ry="18.39" transform="translate(125.2 727.91) rotate(-42.22)"/>
    <g>
      <path class="cls-37" d="M1058.7,132.47c-.84-7.92.45-16.02,3.84-23.24.32-.69.19-1.53-.51-1.94-.61-.36-1.61-.19-1.94.51-3.6,7.66-5.12,16.24-4.22,24.67.08.76.59,1.41,1.41,1.41.7,0,1.5-.65,1.41-1.41h0Z"/>
      <path class="cls-37" d="M1063.17,104.05c-1.98-3.2-3.65-6.59-4.92-10.14-.64-1.79-1.19-3.62-1.64-5.47-.4-1.65-.83-3.36-.73-5.07.04-.69.23-1.37.59-1.96.25-.41.65-.77,1.09-1.01.9-.51,2.21-.64,3.23-.42,2.94.61,4.76,3.17,6.08,5.83.93,1.87,1.7,3.81,2.53,5.72.94,2.18,1.87,4.36,2.81,6.54.3.7,1.33.86,1.94.51.73-.42.81-1.23.51-1.94-1.7-3.97-3.29-8.02-5.16-11.91-1.54-3.19-3.81-6.37-7.4-7.36-3.32-.91-7.14.18-8.52,3.55-.74,1.82-.58,3.84-.24,5.73.36,2.03.9,4.04,1.51,6,1.41,4.5,3.4,8.83,5.88,12.83.96,1.55,3.41.13,2.44-1.43h0Z"/>
      <path class="cls-37" d="M1075.09,98.52c3.18-1.25,6.45-2.24,9.78-2.97.75-.16,1.18-1.03.99-1.74-.21-.77-.99-1.15-1.74-.99-3.33.73-6.6,1.72-9.78,2.97-.71.28-1.21.95-.99,1.74.19.68,1.03,1.27,1.74.99h0Z"/>
      <path class="cls-37" d="M1087.37,93.03c1.9-4.24,3.83-8.46,5.79-12.67.96-2.05,1.91-4.09,2.89-6.13.8-1.68,1.65-3.37,2.77-4.87.89-1.19,2.21-2.42,3.46-2.93.65-.26,1.43-.43,1.96-.47.37-.02.74-.02,1.11,0,.23.02.02-.01.24.03.2.03.4.08.6.13.17.05.34.1.51.16.15.05.05.01.01,0,.09.04.18.08.27.13.13.07.26.14.39.22.25.15.17.1.31.22.53.44.85.87,1.07,1.6.54,1.79-.14,3.74-.76,5.42-1.83,4.88-3.86,9.69-5.79,14.53-.28.71.31,1.55.99,1.74.81.22,1.46-.28,1.74-.99,1.87-4.68,3.77-9.35,5.61-14.04.77-1.98,1.44-4.12,1.18-6.26-.25-2-1.33-3.78-3.1-4.77-3.27-1.84-7.33-.89-10.06,1.44-3.21,2.74-4.82,7.01-6.57,10.73-2.4,5.09-4.75,10.21-7.05,15.35-.31.7-.2,1.52.51,1.94.6.35,1.62.19,1.94-.51h0Z"/>
      <path class="cls-37" d="M1100.6,96.9c5.24-5.65,11.25-10.55,17.87-14.51,1.66-.99,3.34-1.99,5.11-2.76,1.47-.65,3.25-1.13,4.79-.89,1.41.22,2.72.88,3.39,2.12.76,1.42.32,3.22-.45,4.53-1.01,1.72-2.64,3.03-4.19,4.26-1.78,1.41-3.68,2.67-5.64,3.81-1.57.91-.15,3.36,1.43,2.44,1.9-1.11,3.73-2.33,5.48-3.68s3.42-2.71,4.74-4.47c1.24-1.66,2.04-3.79,1.81-5.88s-1.35-3.83-3.15-4.89c-3.84-2.26-8.22-.65-11.8,1.29s-7.26,4.32-10.61,6.88c-3.86,2.95-7.47,6.19-10.77,9.76-1.24,1.33.76,3.34,2,2h0Z"/>
      <path class="cls-37" d="M1110.47,104.19c4.12-3.01,8.44-5.75,12.92-8.2,4.12-2.25,8.61-4.36,13.38-4.52,1.73-.06,4.09-.03,5.3,1.42s.61,3.5-.16,4.88c-1.93,3.43-6.11,5.12-9.5,6.76-5.45,2.63-10.89,5.26-16.34,7.89-.69.33-.87,1.31-.51,1.94.41.7,1.25.84,1.94.51,5.22-2.52,10.44-5.04,15.66-7.57,3.98-1.92,8.5-3.83,10.96-7.73,1.21-1.92,1.87-4.48,1.1-6.69-.83-2.39-3-3.71-5.41-4.08-5.24-.8-10.51,1.05-15.15,3.33-5.48,2.69-10.69,6.01-15.61,9.6-.62.45-.92,1.23-.51,1.94.36.61,1.32.96,1.94.51h0Z"/>
      <path class="cls-37" d="M1117.72,115.88c4.73-.76,9.52-1.08,14.31-.99,2.11.04,4.47.12,6.45.39,1.65.23,3.24.61,4.58,1.53,1.06.73,1.74,2.11,1.52,3.43-.26,1.54-1.28,2.97-2.61,3.82-1.67,1.07-3.69,1.5-5.64,1.74-2.36.28-4.74.44-7.11.65-5.55.49-11.09.97-16.64,1.46-.76.07-1.41.6-1.41,1.41,0,.71.65,1.48,1.41,1.41,5.34-.47,10.68-.94,16.02-1.41,2.57-.23,5.16-.4,7.73-.7,2.36-.28,4.74-.74,6.81-1.96,3.68-2.19,5.83-7.22,2.9-10.89-2.57-3.22-7.44-3.41-11.2-3.61-5.97-.32-11.96.04-17.86.99-.76.12-1.17,1.06-.99,1.74.22.8.98,1.11,1.74.99h0Z"/>
      <path class="cls-37" d="M1110.09,129.14c-4.93,5.8-10.08,11.42-15.42,16.84-1.28,1.3.72,3.3,2,2,5.34-5.42,10.49-11.04,15.42-16.84.49-.58.57-1.43,0-2-.51-.51-1.5-.58-2,0h0Z"/>
      <path class="cls-37" d="M1080.07,107.57c2.16,5.2,2.11,11.22-.37,16.3-.33.69-.19,1.53.51,1.94.62.36,1.6.18,1.94-.51,2.79-5.73,3.12-12.57.66-18.48-.29-.71-.94-1.21-1.74-.99-.67.18-1.28,1.03-.99,1.74h0Z"/>
      <path class="cls-37" d="M1018.47,251.99c3.59,2.38,7.96,2.95,12.15,2.33s8.14-2.65,11.52-5.29,6.3-6.04,8.97-9.46c2.83-3.63,5.53-7.37,8.09-11.2,5.09-7.62,9.64-15.59,13.81-23.76,4.19-8.2,7.98-16.6,11.57-25.08,3.61-8.54,7.02-17.16,10.39-25.8.42-1.07.83-2.13,1.25-3.2.28-.71-.31-1.55-.99-1.74-.8-.22-1.46.27-1.74.99-3.28,8.42-6.57,16.83-10.03,25.18s-7.05,16.44-11,24.47-8.29,15.95-13.1,23.54c-2.39,3.76-4.89,7.44-7.53,11.03s-5.16,6.88-8.19,9.92c-2.85,2.86-6.16,5.44-10.02,6.77-3.64,1.26-7.66,1.52-11.31.14-.85-.32-1.65-.77-2.4-1.27-.64-.42-1.57-.13-1.94.51-.41.69-.13,1.51.51,1.94h0Z"/>
      <path class="cls-37" d="M1027.9,188.5c5.97-13.58,13.01-26.68,21.04-39.15,2.29-3.55,4.66-7.05,7.11-10.5.44-.62.11-1.57-.51-1.94-.71-.41-1.49-.12-1.94.51-8.59,12.1-16.22,24.87-22.79,38.16-1.87,3.79-3.66,7.62-5.36,11.49-.31.7-.2,1.52.51,1.94.6.35,1.63.2,1.94-.51h0Z"/>
      <path class="cls-37" d="M1020.26,186.08c.9.75,1.76,1.56,2.56,2.42.39.42.77.85,1.14,1.29.19.23.37.46.55.69.16.2-.13-.17-.02-.03.05.06.09.12.14.18.09.12.18.25.28.37.22.31.47.55.85.65.34.09.79.05,1.09-.14.59-.38.97-1.3.51-1.94-1.48-2.03-3.16-3.88-5.09-5.49-.29-.25-.6-.41-1-.41-.35,0-.76.15-1,.41-.48.52-.61,1.49,0,2h0Z"/>
    </g>
    <path class="cls-37" d="M988.74,219.18s-38.38-27.84-49.42-43.58c-23.25-33.14-20.3-40.73-17.81-42.67,15.61-12.19,48.32,2.77,61.15,11.19,10.3,6.76,38.86,33.04,38.86,33.04-3.78,17.9-6.86,28.62-32.78,42.02Z"/>
    <path class="cls-37" d="M996.31,192.96c-16.31-39.87-41.35-78.2-95.89-65h0c-12.25,3.75-21.49,8.22-28.55,13.32-18.36,8.63-38.73,31.06-49.04,50.57-6.24,11.8-19.9,48.32-19.9,48.32,6.97,11.81,23.03,23.19,41.35,25.51,2.69,27.79,7.25,52.23,7.25,52.23,85.19,6.54,141.08-8.69,173.7-41.31,0,0-16.25-52.68-28.92-83.64Z"/>
    <g>
      <path class="cls-37" d="M805.08,236.18c3.72-9.24,7.63-18.41,11.99-27.37s9.17-17.75,14.66-26.09c5.11-7.76,10.83-15.13,17.26-21.84s12.87-12.2,20.24-17.11,15.27-8.91,23.67-11.66c1.05-.34,2.1-.66,3.16-.97,1.75-.5,1-3.23-.75-2.73-8.68,2.5-16.98,6.3-24.64,11.07s-14.82,10.56-21.27,16.95-12.59,13.89-17.92,21.6c-5.73,8.31-10.74,17.09-15.26,26.11s-8.59,18.36-12.42,27.73c-.48,1.18-.96,2.36-1.44,3.54-.29.71.31,1.55.99,1.74.81.22,1.45-.28,1.74-.99h0Z"/>
      <path class="cls-37" d="M803.51,234.97c-1.74.4-2.93,2-3.2,3.71-.33,2.08.58,3.91,1.84,5.51s2.69,2.98,4.09,4.4,2.97,2.92,4.53,4.31c6.22,5.55,13.29,10.23,21.28,12.8,4.53,1.45,9.32,2.19,14.07,1.96.76-.04,1.41-.62,1.41-1.41,0-.74-.65-1.45-1.41-1.41-7.63.36-15.15-1.87-21.78-5.57s-12.34-8.72-17.55-14.17c-1.25-1.31-2.89-2.71-3.53-4.45-.26-.71-.3-1.26-.03-1.99.03-.09.27-.49.35-.58.26-.27.32-.29.68-.37,1.77-.41,1.02-3.14-.75-2.73h0Z"/>
      <path class="cls-45" d="M851.56,265.53c7.67-9.7,14.11-20.34,19.05-31.68,1.4-3.22,2.7-6.49,3.87-9.8.25-.72-.29-1.55-.99-1.74-.78-.21-1.49.27-1.74.99-4.01,11.36-9.5,22.17-16.26,32.14-1.88,2.77-3.85,5.47-5.93,8.09-.47.6-.58,1.42,0,2,.49.49,1.52.6,2,0h0Z"/>
      <path class="cls-37" d="M844.48,271.9c.64,12.34,2.13,24.64,4.46,36.78.66,3.42,1.38,6.83,2.17,10.22.41,1.77,3.14,1.02,2.73-.75-2.75-11.83-4.7-23.84-5.8-35.94-.31-3.43-.55-6.86-.73-10.3-.04-.76-.62-1.41-1.41-1.41-.74,0-1.45.65-1.41,1.41h0Z"/>
      <path class="cls-37" d="M914.31,125.77c8.53,0,17.05.84,25.4,2.56,7.98,1.64,15.79,4.06,23.3,7.2s14.21,6.75,20.8,11,12.6,8.91,18.33,14.08,10.96,10.67,15.82,16.55c.6.73,1.2,1.47,1.79,2.21.48.6,1.5.5,2,0,.59-.59.48-1.4,0-2-4.81-6.03-10.04-11.72-15.68-16.98s-11.97-10.36-18.53-14.78c-6.6-4.45-13.58-8.33-20.85-11.55s-15.35-5.98-23.38-7.83c-8.43-1.94-17.06-3.02-25.7-3.24-1.1-.03-2.21-.04-3.31-.04-1.82,0-1.82,2.83,0,2.83h0Z"/>
      <path class="cls-37" d="M1005.39,209.76c7.13-6.63,12.48-15.1,15.52-24.34.85-2.57,1.5-5.21,1.96-7.88.13-.75-.2-1.52-.99-1.74-.68-.19-1.61.23-1.74.99-1.59,9.17-5.5,17.94-11.36,25.18-1.66,2.06-3.47,3.99-5.4,5.79-1.34,1.24.67,3.24,2,2h0Z"/>
      <path class="cls-37" d="M854.65,320.48c12.89.96,25.81,1.62,38.73,1.59,12.85-.02,25.7-.72,38.44-2.43,11.56-1.55,23.01-3.93,34.15-7.42,10.55-3.3,20.84-7.55,30.54-12.85s18.66-11.58,26.75-18.97c1.01-.92,2-1.86,2.98-2.81,1.31-1.27-.7-3.27-2-2-7.76,7.55-16.48,14.04-25.84,19.47s-19.38,9.85-29.67,13.3-21.84,6.17-33.05,7.89c-12.56,1.93-25.28,2.78-37.98,2.95s-25.52-.35-38.25-1.22c-1.6-.11-3.19-.22-4.79-.34-1.82-.14-1.81,2.69,0,2.83h0Z"/>
      <path class="cls-45" d="M980.61,163.48c4.27,6.79,7.95,13.93,11.23,21.24s6.14,14.76,8.85,22.28,5.25,15,7.86,22.5,5.38,15.44,8.07,23.16,5.33,15.3,7.98,22.95c.31.91.63,1.81.94,2.72.25.72.97,1.2,1.74.99.7-.19,1.24-1.02.99-1.74-2.64-7.64-5.3-15.27-7.96-22.9-2.7-7.74-5.4-15.49-8.1-23.23s-5.21-15.17-7.91-22.72-5.57-15.19-8.78-22.61-6.77-14.63-10.91-21.53c-.51-.85-1.03-1.69-1.55-2.53-.97-1.54-3.42-.12-2.44,1.43h0Z"/>
    </g>
    <path class="cls-29" d="M927.4,56.43c-8.62-14.57-24.36-21.86-38.28-18.93-5.76-3.24-13.76-4.18-22.71-.9-4,1.46-11.85,7.66-15.42,13.15-3.54,5.44-10.14,6.48-10.14,6.48l11.67,16.11c3.78,5.22,9.38,8.22,14.99,8.65.94,2.91,2.23,5.79,3.87,8.57,10.49,17.74,31.53,24.7,47,15.55s19.51-30.94,9.02-48.68Z"/>
    <path class="cls-31" d="M924.95,82.15c.13-16.69-10.74-32.44-27.87-38.12-21.13-7.01-43.78,3.94-50.59,24.45-6.81,20.52,4.79,42.84,25.92,49.85,5.79,1.92,11.7,2.49,17.37,1.88l3.81,14.38c1.3,4.91,6.34,7.84,11.25,6.53l4.1-1.09c4.91-1.3,7.84-6.34,6.53-11.25l-4.6-17.34c1.03-.84,2.02-1.73,2.96-2.68.14.05.28.11.42.16,8.63,2.86,17.66-.95,20.17-8.51,2.35-7.09-1.85-14.95-9.48-18.27Z"/>
    <path class="cls-37" d="M891.28,40.57c3.15-3.15,15.23,2.82,25.81,13.4,10.58,10.58,16.61,21.72,13.46,24.87-3.15,3.15-14.28-2.88-24.87-13.46-10.58-10.58-17.55-21.66-14.4-24.81Z"/>
    <path class="cls-37" d="M888.03,43.82c2.85,6.9,7.1,13.06,12.1,18.58,2.49,2.75,5.14,5.33,7.91,7.8s5.69,4.92,8.89,6.87c3.58,2.18,7.55,3.71,11.77,3.89.76.03,1.41-.67,1.41-1.41,0-.79-.65-1.38-1.41-1.41-6.99-.3-12.92-4.87-17.96-9.31s-10.24-9.7-14.26-15.47c-2.25-3.22-4.22-6.66-5.72-10.29-.29-.71-.94-1.21-1.74-.99-.67.18-1.28,1.03-.99,1.74h0Z"/>
    <g>
      <g>
        <path class="cls-37" d="M866.95,81.93c4.79,2.95,11.23,3.37,16.23.7,1.61-.86.18-3.3-1.43-2.44-4.12,2.2-9.45,1.71-13.38-.7-1.56-.96-2.98,1.49-1.43,2.44h0Z"/>
        <path class="cls-37" d="M868.05,81.06c-1.46,2.47-1.82,5.46-.78,8.16.94,2.44,2.67,4.52,4.99,5.75s4.91,1.7,7.38,1.05c2.61-.69,4.55-2.71,5.47-5.2,1.17-3.16.29-6.68-.93-9.68-.29-.71-.94-1.21-1.74-.99-.67.18-1.28,1.03-.99,1.74.89,2.17,1.75,4.69,1.25,7.07-.36,1.73-1.4,3.34-3.07,4.09-3.39,1.5-7.63-.73-9.31-3.88-1.15-2.15-1.07-4.58.17-6.67.93-1.57-1.51-3-2.44-1.43h0Z"/>
      </g>
      <path class="cls-37" d="M855.48,67.9c0-1.43,1.36-3.23,3.54-2.59,1.38.4,1.65,1.16,1.65,2.59s-1.16,2.59-2.59,2.59-2.59-1.16-2.59-2.59Z"/>
      <path class="cls-37" d="M878.15,69.49c0-1.43.6-2.5,2.03-2.59,1.91-.13,3.16,1.16,3.16,2.59s-1.16,2.59-2.59,2.59-2.59-1.16-2.59-2.59Z"/>
      <path class="cls-37" d="M865.79,67.38c.03.15.05.3.07.45l-.05-.38c.1.81.1,1.62,0,2.43l.05-.38c-.1.72-.27,1.42-.53,2.1-.12.33-.03.8.14,1.09s.51.57.85.65c.8.18,1.46-.25,1.74-.99.69-1.83.8-3.81.46-5.73-.06-.33-.37-.68-.65-.85-.3-.18-.75-.25-1.09-.14-.78.25-1.13.96-.99,1.74h0Z"/>
    </g>
    <path class="cls-3" d="M893.91,330.63s-15.63,99.17-27.34,118.49c-11.71,19.32-101.17,142.64-101.17,142.64"/>
    <path class="cls-44" d="M1200.51,534.99c-4.01-5.06-4.49-12-1.62-17.78.75-1.52,1.43-3.07,2.03-4.66,9.89-26.19-8.02-47.74-45.61-65.79-4.71-2.26-8.08-6.64-9.08-11.77-5.98-30.87-12.39-52.18-43.52-56.94-35.54-4.1-39.85,19.85-52.89,56.52-1.09,3.07-3.11,5.7-5.68,7.7-12.49,9.71-19.48,23.23-17.47,37.5.32,2.29.72,4.57,1.2,6.84,1.37,6.45-.92,13.23-6.25,17.11-10.08,7.32-16.86,17.21-18.8,29.74-7.94,51.14,10.19,73.63,41.37,86.96,3.97,1.7,7.17,4.8,8.91,8.76,11.75,26.68,28.96,47.53,51.62,57.27,1.73.74,3.59,1.14,5.47,1.22,36.84,1.44,53.3-15.72,58.13-46.91.84-5.45,4.23-10.11,9.14-12.61,13.89-7.08,24.47-17.72,30.54-31.76,10.34-23.92,5.77-44.65-7.5-61.4Z"/>
    <g>
      <path class="cls-2" d="M1219.5,664.53c-3.77-1.4-7.52-2.46-11.17-3.22l-27.15-132.04c-2.5-12.15-14.38-19.98-26.53-17.48h0c-12.15,2.5-19.98,14.38-17.48,26.53l27.18,132.2c.69,3.34,2.09,6.36,4,8.92,3.51,9.78,16.54,20.96,41.61,22.53,16.95,1.07,51.33.69,51.8-6.73.42-6.64-14.93-20.55-42.25-30.71Z"/>
      <path class="cls-36" d="M1201.15,696.58c.76-3.77,4.31-4.89,15.08-4.21s19.31,4.34,19.07,8.18c-.24,3.84-5.87,5.38-19.86,4.39-11.88-3.14-14.89-5.38-14.29-8.35Z"/>
      <path class="cls-36" d="M1229.4,694.99c.83-3.77,4.86-4.86,17.11-4.09,12.25.77,21.99,4.51,21.75,8.35-.24,3.84-6.63,5.33-22.54,4.22-13.53-3.24-16.98-5.51-16.32-8.48Z"/>
      <path class="cls-36" d="M1229.32,689.33c1.05-5.12,6.44-10.36,21.24-7.35,15.45,3.14,26.9,7.2,26.46,14.21-.33,5.21-8.71,5.02-27.37-.43-16.48-4.81-21.15-2.41-20.33-6.44Z"/>
      <path class="cls-37" d="M1235.62,680.48c.14,0,.27.02.41.03.08,0,.17,0,.25.03-.46-.15-.12-.02.04,0,.53.08,1.06.17,1.59.27,1.58.29,3.15.63,4.71.97,4.22.93,8.43,1.96,12.61,3.09,3.93,1.06,7.87,2.16,11.67,3.6,2.03.76,4.08,1.66,5.99,2.91.85.56,1.82,1.35,2.32,2.08.57.83.8,1.49.77,2.43-.02.53-.14,1.12-.39,1.7-.15.35-.39.7-.71,1.01-.09.09-.19.18-.29.26.19-.15-.1.06-.14.09-.22.14-.44.26-.68.37.25-.11-.14.05-.16.06-.12.04-.25.08-.37.12-.25.07-.51.13-.77.18-.02,0-.45.07-.17.03-.13.02-.27.03-.4.04-.27.02-.53.04-.8.04-.54.01-1.08,0-1.62-.04-.86-.06-1.71-.17-2.57-.25-.73-.07-1.35.67-1.35,1.35,0,.79.62,1.28,1.35,1.35,3.77.37,8.91.91,10.96-3.16,1.16-2.31,1.05-5.08-.51-7.17-1.66-2.22-4.22-3.6-6.7-4.72-3.81-1.73-7.83-2.94-11.85-4.08-4.51-1.28-9.06-2.42-13.63-3.47-2-.46-4-.9-6.02-1.29-1.16-.22-2.37-.51-3.56-.54-1.74-.05-1.73,2.64,0,2.7h0Z"/>
      <path class="cls-37" d="M1232.82,689.99c5.79,0,11.57.63,17.25,1.74,2.13.42,4.24.9,6.34,1.44,1.86.48,3.84,1.01,5.56,1.74.47.2.93.42,1.38.67.2.11.4.23.6.36.11.07.21.14.31.21.14.09.15.1.2.14.17.13.32.27.48.42.1.1.19.2.28.3.02.02.16.2.04.04.13.17.24.36.35.55.02.03.11.23.02.03.05.12.09.24.12.37,0-.02.08.39.05.2s.02.24.01.22c0,.09,0,.18,0,.27,0,.42.04-.11,0,.12-.07.34-.29.73-.54,1.02-.64.75-1.39,1.3-2.25,1.78-.19.11-.39.21-.59.3.26-.12-.22.07-.29.09-.44.13-.89.23-1.34.31-1.1.2-2.2.3-3.34.38-3.01.22-6.05.26-9.07.13-2.73-.11-5.45-.61-8.11-1.25-1.05-.25-2.09-.52-3.12-.84-.36-.11-.72-.22-1.07-.35-.18-.07-.44-.27-.09-.03-.07-.05-.15-.07-.22-.11-1.49-.9-2.85,1.43-1.36,2.33.49.3,1.1.46,1.65.64.94.3,1.89.56,2.84.79,2.62.65,5.28,1.15,7.97,1.4,3.11.29,6.3.21,9.42.04,1.43-.08,2.85-.2,4.26-.4.94-.13,1.92-.28,2.8-.64,2.03-.82,4.51-2.57,5.04-4.83.56-2.38-.86-4.42-2.71-5.73s-4.2-2.07-6.39-2.7c-2.04-.58-4.1-1.09-6.17-1.55-6.66-1.46-13.47-2.32-20.29-2.32-1.73,0-1.74,2.7,0,2.7h0Z"/>
      <path class="cls-37" d="M1214.24,693.15c4.97.09,9.99.87,14.69,2.52.93.33,1.83.73,2.66,1.27.76.5,1.29,1.03,1.69,1.72.28.49.42,1.26.34,1.8-.12.86-.62,1.55-1.26,2.12-2.79,2.48-7.07,2.03-10.49,1.69-1.53-.15-3.07-.25-4.6-.4s-2.97-.37-4.61-.71c-3.74-.78-7.79-2.03-10.52-4.71-1.24-1.21-3.15.69-1.91,1.91,2.88,2.82,6.88,4.28,10.73,5.19,3.49.82,7.02,1.04,10.56,1.39,4.24.42,8.86.66,12.39-2.15,1.81-1.45,2.78-3.65,2.28-5.95s-2.27-3.77-4.18-4.75c-2.55-1.31-5.47-2.01-8.26-2.57-3.13-.63-6.32-.98-9.51-1.04-1.74-.03-1.74,2.66,0,2.7h0Z"/>
    </g>
    <path class="cls-37" d="M1198.92,587.18s-7.12-43.6-18.56-65.91c-7.24-14.13-36.74-39.12-52.61-38.72-.1,0-.19.02-.29.03-13-2.22-42.4-3.44-42.4-3.44-27.85-5.34-45.02,17.05-53.14,31.01-11.63,19.99-24.79,61.51-26.44,87.69,42.02,24.17,102.84,35.7,137.34,23.79,1.03-6.76,2.12-15.11,3.21-24.19,1.43,3.56,2.29,5.62,2.29,5.62l50.6-15.88Z"/>
    <g>
      <path class="cls-37" d="M1108.07,481.56c10.56-.19,21.08,1.99,30.89,5.87,9.3,3.68,18.12,9.01,25.37,15.94,6.65,6.36,11.89,14,16.01,22.19,4.3,8.54,7.4,17.64,9.94,26.84,2.7,9.77,4.76,19.7,6.72,29.64.24,1.23.49,2.47.73,3.7l.62-1.52c-7.86,5.01-16.79,8.13-25.69,10.78-7.43,2.21-14.99,4.01-22.6,5.48-1.49.29-2.99.57-4.49.81-.72.12-1.12,1.01-.94,1.66.21.77.94,1.06,1.66.94,4.36-.7,8.68-1.62,12.98-2.6,8.95-2.05,17.85-4.52,26.41-7.87,4.85-1.9,9.63-4.06,14.03-6.86.54-.34.74-.91.62-1.52-1.98-10.11-4-20.22-6.61-30.18s-5.55-19-9.76-27.96c-3.98-8.49-9.09-16.5-15.6-23.28-7.04-7.34-15.7-13.07-24.98-17.2-9.88-4.4-20.55-7.11-31.38-7.5-1.32-.05-2.63-.06-3.95-.03-1.73.03-1.74,2.73,0,2.7h0Z"/>
      <path class="cls-37" d="M1092.43,478.13c-10.93-1.35-22.47-2.27-32.9,2.04-9.5,3.92-17.07,11.21-22.88,19.55-3.13,4.49-5.77,9.29-8.18,14.19-2.45,4.97-4.7,10.04-6.8,15.17-4.23,10.31-7.79,20.91-10.64,31.69-2.86,10.82-4.99,21.83-6.41,32.94-.18,1.37-.34,2.75-.49,4.12-.08.72.68,1.35,1.35,1.35.8,0,1.27-.62,1.35-1.35,1.21-10.88,3.15-21.69,5.78-32.32,2.62-10.64,5.93-21.11,9.91-31.32,1.98-5.09,4.13-10.11,6.44-15.05s4.66-9.58,7.45-14.11c5.21-8.44,11.98-16.16,20.86-20.84,4.51-2.38,9.46-3.74,14.53-4.23,5.52-.53,11.09-.19,16.59.4,1.35.14,2.7.31,4.05.47.72.09,1.35-.68,1.35-1.35,0-.8-.62-1.26-1.35-1.35h0Z"/>
      <path class="cls-37" d="M1144.39,600.4c-.39,4.71-.91,9.4-1.59,14.07-.16,1.14-.34,2.27-.52,3.41-.1.61-.2,1.22-.3,1.82-.05.29-.05.86-.24,1.1-.17.22-.6.26-.86.33-.54.15-1.08.29-1.62.43-1.16.31-2.32.61-3.48.92-1.68.44-.97,3.04.72,2.6,1.24-.33,2.47-.65,3.71-.98,1.11-.29,2.42-.48,3.31-1.28s.98-1.93,1.16-3.02c.21-1.3.42-2.59.61-3.89.76-5.15,1.36-10.33,1.79-15.52.06-.73-.66-1.35-1.35-1.35-.78,0-1.29.62-1.35,1.35h0Z"/>
      <path class="cls-45" d="M1136.21,548.31c.44,8.05,1.17,16.09,2.36,24.07,1.18,7.92,2.82,15.79,5.11,23.47.7,2.34,1.38,4.68,2.02,7.03.45,1.67,3.05.96,2.6-.72-1.53-5.65-3.31-11.21-4.61-16.92-1.76-7.75-2.96-15.61-3.76-23.51-.45-4.46-.78-8.94-1.03-13.42-.04-.73-.59-1.35-1.35-1.35-.7,0-1.39.62-1.35,1.35h0Z"/>
    </g>
    <g>
      <path class="cls-44" d="M912.41,731.15l86.08-82.53,24.52,9.04,12.22-4.99,9.55,54.99-18.85.37c-23.71,10.43-86.98,38.52-113.53,23.12Z"/>
      <path class="cls-15" d="M912.41,731.15l86.08-82.53,24.52,9.04,12.22-4.99,9.55,54.99-18.85.37c-23.71,10.43-86.98,38.52-113.53,23.12Z"/>
      <rect class="cls-9" x="889.58" y="682.17" width="125.08" height="8.53" transform="translate(-210.44 848.24) rotate(-43.71)"/>
    </g>
    <path class="cls-46" d="M1081.35,695.37l28.29-65.41,75.3-26.47c19.63-4.75,38.44,6.06,41.57,15.88,8.45,26.52,1.97,42.76-19,54.15-27.61,15-126.15,21.85-126.15,21.85Z"/>
    <path class="cls-46" d="M997.89,666.73l17.08-63.95c15.25,6.73,64.65,20.79,81.43,23.04l-19.5,59.8-79-18.88Z"/>
    <path class="cls-30" d="M1025.93,708.03l-6.87-57.82s119.55-34.56,159.79-44.58c13.11-3.27,29.89,3.77,36,13.63,7.11,11.47,4.7,41.21-9.16,45.84-46.11,15.41-179.76,42.93-179.76,42.93Z"/>
    <g>
      <path class="cls-37" d="M1048.2,642.9c7.37-2.3,14.75-4.61,22.13-6.88,5.82-1.79,11.65-3.57,17.49-5.29,5.28-1.55,10.57-3.06,15.87-4.52,5.75-1.58,11.51-3.1,17.28-4.58,7.23-1.86,14.47-3.67,21.71-5.47,1.05-.26,2.11-.52,3.16-.78,1.68-.42.97-3.02-.72-2.6-7.5,1.86-14.99,3.73-22.48,5.64-5.9,1.51-11.79,3.05-17.67,4.65-5.31,1.44-10.6,2.94-15.89,4.48-5.72,1.67-11.43,3.4-17.12,5.15-7.14,2.19-14.26,4.41-21.39,6.64-1.04.32-2.07.65-3.11.97-1.65.52-.95,3.12.72,2.6h0Z"/>
      <path class="cls-37" d="M1202.01,664.92c-6.05,3.25-12.43,5.84-18.94,8-7.53,2.5-15.24,4.45-23.02,6.01-4.73.95-9.49,1.74-14.27,2.41-.72.1-1.12,1.02-.94,1.66.21.78.93,1.04,1.66.94,8.39-1.17,16.72-2.74,24.93-4.82,7.31-1.86,14.53-4.12,21.51-6.98,3.55-1.46,7.05-3.07,10.43-4.89,1.53-.82.17-3.15-1.36-2.33h0Z"/>
    </g>
    <g>
      <path class="cls-36" d="M1199.87,726.43l-101.47-62.64-22.08,13.98-20.38-13.79-14.31,47.43,42.4,16.22c25.37,5.22,93.12,19.43,115.85-1.2Z"/>
      <path class="cls-34" d="M1199.87,726.43l-101.47-62.64-22.08,13.98,7.7,49.86c25.37,5.22,93.12,19.43,115.85-1.2Z"/>
      <line class="cls-21" x1="1109.18" y1="716.1" x2="1107.94" y2="735.81"/>
      <line class="cls-21" x1="1118.74" y1="714.93" x2="1117.39" y2="736.4"/>
      <line class="cls-21" x1="1129.57" y1="715.61" x2="1128.22" y2="737.08"/>
      <line class="cls-21" x1="1092.85" y1="666.47" x2="1196.8" y2="731.5"/>
      <line class="cls-21" x1="914.46" y1="735.98" x2="977.77" y2="674.13"/>
      <line class="cls-21" x1="979.98" y1="727.93" x2="974.11" y2="707.43"/>
      <line class="cls-21" x1="990.23" y1="725" x2="984.36" y2="704.5"/>
      <line class="cls-21" x1="999.24" y1="722.42" x2="993.37" y2="701.92"/>
      <rect class="cls-9" x="1089.12" y="686.78" width="125.08" height="8.53" transform="translate(533.04 -501.09) rotate(31.61)"/>
    </g>
    <path class="cls-46" d="M904.02,605.58c7.06-20.15,22.52-24.45,42.62-24.01,26.65.58,58.15,15.61,75.43,24.72,20.13,10.62,9.9,90.77,9.9,90.77l-105.84-44.79c-5.85-1.08-30.3-23.33-22.11-46.69Z"/>
    <path class="cls-46" d="M907.86,608.71c9.74-16.84,26.43-19.11,48.23-10.26,31.65,12.85,94.66,43.24,121.54,69.33l-16.46,59.82c-41.11-15.51-109.87-45.77-137.9-73.75-9.16-9.15-24.48-29.45-15.41-45.13Z"/>
    <g>
      <path class="cls-37" d="M1061.17,728.94c1.73,0,1.74-2.7,0-2.7s-1.74,2.7,0,2.7h0Z"/>
      <path class="cls-37" d="M945.27,595.89c9.25,3.28,18.39,6.85,27.41,10.73s17.9,8.04,26.65,12.49,17.42,9.21,25.9,14.23c8.44,5,16.73,10.27,24.83,15.79s16.04,11.32,23.77,17.36c.95.74,1.9,1.49,2.84,2.24.57.45,1.35.56,1.91,0,.47-.47.57-1.45,0-1.91-7.77-6.18-15.74-12.11-23.89-17.77s-16.43-11.02-24.9-16.13-17.1-9.94-25.89-14.49c-8.78-4.55-17.71-8.82-26.77-12.79s-18.31-7.69-27.64-11.09c-1.17-.43-2.34-.85-3.52-1.26-.69-.24-1.48.28-1.66.94-.2.75.25,1.41.94,1.66h0Z"/>
      <path class="cls-37" d="M1076.33,667.42c-1.68,7.74-3.9,15.35-6.15,22.94-2.41,8.14-4.92,16.25-7.18,24.43-1.14,4.12-2.22,8.27-3.13,12.45-.15.71.21,1.46.94,1.66.67.18,1.5-.23,1.66-.94,1.68-7.74,3.9-15.35,6.15-22.94,2.41-8.14,4.92-16.25,7.18-24.43,1.14-4.12,2.22-8.27,3.13-12.45.15-.71-.21-1.46-.94-1.66-.67-.18-1.5.23-1.66.94h0Z"/>
    </g>
    <path class="cls-37" d="M1004.8,598.99c3.74,2.36,7.84,4.17,11.92,5.87,5.47,2.28,11.05,4.27,16.68,6.13,6.49,2.14,13.05,4.08,19.65,5.85s13.49,3.44,20.3,4.87c6.33,1.32,12.7,2.46,19.11,3.29.72.09,1.45.18,2.17.27s1.35-.68,1.35-1.35c0-.8-.62-1.26-1.35-1.35-6.05-.7-12.25-1.77-18.33-3-6.73-1.36-13.42-2.93-20.07-4.67s-13.18-3.63-19.68-5.71c-5.76-1.85-11.49-3.84-17.1-6.1-4.02-1.62-8.24-3.44-12.15-5.73-.38-.22-.75-.45-1.13-.69-1.47-.93-2.83,1.4-1.36,2.33h0Z"/>
    <path class="cls-36" d="M1126.09,432.93c.57-1.96,1.01-4,1.27-6.1,2.64-21.18-12.38-40.49-33.56-43.14-21.18-2.64-40.49,12.38-43.14,33.56-2.62,20.95,12.06,40.05,32.87,43.03-.1.92-.11,1.87.04,2.83l3.79,25.61c.88,5.94,6.41,10.04,12.34,9.16h0c5.94-.88,10.04-6.41,9.16-12.34l-3.79-25.61c-.13-.86-.36-1.67-.67-2.44,4.18-1.82,7.99-4.35,11.28-7.48,1.24.71,2.61,1.27,4.11,1.63,6.76,1.62,13.27-1.38,14.54-6.69,1.16-4.85-2.46-9.94-8.24-12.02Z"/>
    <path class="cls-44" d="M1075.11,382.56c5.26-4.64,17.08-3.97,29.11,1.57,12.04,5.54,22.46,14.21,19.92,19.72-2.53,5.51-16.85,5.26-29.1.23-14.12-5.8-23.57-18.32-19.93-21.52Z"/>
    <path class="cls-44" d="M1125.59,401.68c3.19,1.1,6.95,7.67,6.42,16.03-.53,8.36-3.27,16.48-7.1,16.24-3.83-.24-9.63-8.86-9.45-17.23.21-9.65,6.5-16.29,10.13-15.04Z"/>
    <path class="cls-44" d="M1073.64,384.44c-.26,3.06,1.01,6.09,2.67,8.6,1.76,2.66,4.01,4.97,6.55,6.88,2.81,2.1,6.12,3.53,9.42,4.67,3.59,1.23,7.3,2.17,10.99,3.04,4.41,1.04,8.92,1.82,13.46,1.73l-1.3-1.71c-1.63,4.46-1.25,9.67-.08,14.19,1.07,4.15,3.14,8.96,7.04,11.19,1.99,1.14,4.36,1.32,6.49.45.67-.27,1.15-.9.94-1.66-.18-.64-.98-1.22-1.66-.94-.43.17-.86.3-1.31.4,0,0-.36.06-.14.03s-.13.01-.14.01c-.24.02-.49.03-.73.02-.1,0-.2-.02-.31-.02-.33,0,.21.04,0,0-.18-.03-.37-.07-.55-.11-.2-.05-.39-.12-.58-.18-.06-.02-.37-.16-.06-.02-.09-.04-.19-.09-.28-.13-.38-.19-.74-.42-1.08-.67-.05-.03-.2-.16.01.01-.09-.07-.17-.14-.26-.21-.2-.17-.39-.35-.58-.54-.31-.31-.59-.63-.86-.97-.25-.31.15.21-.09-.12-.07-.1-.15-.2-.22-.3-.15-.21-.29-.42-.42-.63-2.28-3.6-3.37-8.1-3.49-12.32-.07-2.46.11-4.45.95-6.75.3-.82-.48-1.72-1.3-1.71-3.83.08-7.6-.48-11.33-1.31-3.53-.78-7.05-1.68-10.51-2.74s-6.57-2.3-9.49-4.19c-2.24-1.45-4.25-3.38-5.89-5.5-1.87-2.42-3.44-5.4-3.18-8.47.06-.73-.66-1.35-1.35-1.35-.78,0-1.29.62-1.35,1.35h0Z"/>
    <path class="cls-34" d="M1168.01,380.99c-.48-1.58-1.21-3.09-2.22-4.48-5.37-7.45-16.4-8.67-24.63-2.73s-10.54,16.79-5.17,24.24c.84,1.16,1.83,2.16,2.92,3.01,3.25,4.59,8.91,7.66,15.38,7.69,10.15.05,18.42-7.34,18.47-16.53.02-4.31-1.79-8.24-4.75-11.21Z"/>
    <path class="cls-44" d="M1135.02,392.62c-3.04-6.32-2.68-13.94,1.15-19.83,3.44-5.28,10.48-9.84,16.94-7.48,2.96,1.08,5.33,3.99,5.27,7.17-.03,1.74,2.66,1.74,2.7,0,.07-3.68-2.2-7.03-5.31-8.87-3.47-2.05-7.82-1.98-11.52-.63-7.25,2.64-12.6,9.55-13.71,17.15-.69,4.74.07,9.54,2.15,13.85.32.66,1.25.83,1.84.48.67-.39.8-1.19.48-1.84h0Z"/>
    <path class="cls-37" d="M1064.67,412.79c.1-1.36,1.53-2.97,3.55-2.21,1.28.48,1.48,1.22,1.38,2.58-.1,1.36-1.29,2.38-2.65,2.28s-2.38-1.29-2.28-2.65Z"/>
    <path class="cls-37" d="M1083.51,415.11c.1-1.36.75-2.33,2.12-2.32,1.83.02,2.92,1.33,2.81,2.69-.1,1.36-1.29,2.38-2.65,2.28s-2.38-1.29-2.28-2.65Z"/>
    <path class="cls-37" d="M1074.91,410.51c.26,3.09-.68,6.23-2.69,8.61-.31.37-.36.91,0,1.27.32.32.96.37,1.27,0,2.31-2.73,3.51-6.31,3.21-9.88-.04-.48-.38-.9-.9-.9-.45,0-.94.41-.9.9h0Z"/>
    <path class="cls-37" d="M1058.21,613.99c.62,3.88-1.14,7.73-1.65,11.52-.38,2.82-.03,6,1.55,8.42.94,1.44,2.26,2.5,3.91,3.02s2.37-2.08.72-2.6c-1.33-.42-2.24-1.43-2.86-2.8s-.82-3-.76-4.58c.08-2.08.74-4.24,1.21-6.36.54-2.44.87-4.87.47-7.35-.12-.72-1.01-1.12-1.66-.94-.77.21-1.06.94-.94,1.66h0Z"/>
    <path class="cls-37" d="M1072,616.41c-1.16,2.92-2.1,5.9-2.77,8.97s-1.25,6.16-2.03,9.21c-.43,1.68,2.17,2.4,2.6.72.78-3.05,1.36-6.14,2.03-9.21s1.61-6.05,2.77-8.97c.27-.68-.29-1.48-.94-1.66-.77-.21-1.39.26-1.66.94h0Z"/>
    <path class="cls-37" d="M1013.78,615.28c2.04,3.38,4.07,6.76,6.11,10.14.89,1.48,3.23.13,2.33-1.36-2.04-3.38-4.07-6.76-6.11-10.14-.89-1.48-3.23-.13-2.33,1.36h0Z"/>
    <path class="cls-37" d="M1021.05,618.03c1.36,2.09,2.71,4.19,4.07,6.28.38.59,1.21.89,1.84.48.59-.38.89-1.21.48-1.84-1.36-2.09-2.71-4.19-4.07-6.28-.38-.59-1.21-.89-1.84-.48-.59.38-.89,1.21-.48,1.84h0Z"/>
    <path class="cls-12" d="M962.39,611.79c23.09,6.75,102.01,56.55,111.44,69.07"/>
    <path class="cls-15" d="M1066.95,455.29c4.85,3.1,14.95,8.8,29.2,4.74"/>
    <path class="cls-16" d="M1072.32,427.33c1.46.74,10.16,3.06,17.21,0"/>
    <g>
      <path class="cls-19" d="M542.94,616.06c0,9.66,1.69,43.12,1.69,43.12,8.33,11.08,51.81,13.91,51.81,44.86l-110.43-.87-6.31-86.35"/>
      <path class="cls-27" d="M545.73,658.72c8.33,11.08,50.71,14.38,50.71,45.32l-111.29-.87-2.25-25.65c10.06-12.24,62.83-18.81,62.83-18.81Z"/>
      <line class="cls-13" x1="594.2" y1="699.38" x2="482.9" y2="697.89"/>
      <line class="cls-13" x1="567.81" y1="669.51" x2="556.99" y2="682.77"/>
      <line class="cls-13" x1="560.49" y1="665.77" x2="548.68" y2="681.49"/>
      <line class="cls-13" x1="553.16" y1="661.54" x2="538.3" y2="679.25"/>
      <rect class="cls-8" x="481.86" y="704.04" width="115.87" height="7.27"/>
    </g>
    <g>
      <path class="cls-19" d="M382.31,611.97l4.09,47.21c-8.33,11.08-51.81,13.91-51.81,44.86l110.43-.87.72-91.41"/>
      <path class="cls-27" d="M386.4,659.18c-18.36,12.91-53.1,13.91-53.1,44.86l113.6-.87v-23.97c-19.61-10.15-60.5-20.01-60.5-20.01Z"/>
      <line class="cls-13" x1="331.49" y1="699.83" x2="448.72" y2="699.25"/>
      <line class="cls-13" x1="363.64" y1="667.72" x2="374.46" y2="680.98"/>
      <line class="cls-13" x1="371.51" y1="664.4" x2="383.32" y2="680.13"/>
      <line class="cls-13" x1="377.68" y1="661.53" x2="392.54" y2="679.24"/>
      <rect class="cls-8" x="331.49" y="704.04" width="117.23" height="7.27"/>
    </g>
    <g>
      <path class="cls-8" d="M369.51,621.31c-9.77-67.86-22.28-166.51-8.62-321.88h98.13l-6.25,323.4-83.25-1.52Z"/>
      <path class="cls-8" d="M558.72,622.24c.28-68.56-2.33-172.8-37.39-324.79l-97.18,13.59,45.13,310.27,89.44.92Z"/>
      <path class="cls-45" d="M405.92,361.08l12.4-50.29,31.76,7.83-12.4,50.29c-12.16-11.9-31.76-7.83-31.76-7.83Z"/>
      <path class="cls-37" d="M410.47,360.6c4.33.14,8.69,1.15,12.83,2.37,1.94.57,3.91,1.2,5.7,2.16,1.69.9,3.18,2.06,4.53,3.41,1.25,1.24,3.18-.69,1.93-1.93-1.46-1.45-3.1-2.74-4.9-3.74-1.97-1.09-4.16-1.83-6.31-2.47-4.44-1.32-9.15-2.38-13.79-2.53-1.75-.06-1.75,2.67,0,2.73h0Z"/>
    </g>
    <path class="cls-35" d="M439.19,7.12c24.76-1.73,43.5,14.98,45.15,38.64,1.65,23.66-21.82,45.45-46.58,47.18s-51.43-15.68-46.05-45.55c4.63-25.7,22.71-38.53,47.48-40.26Z"/>
    <path class="cls-41" d="M351.3,297.22s11.48-82.61,27.96-120.61c12.99-29.97,41.9-79.54,81.62-73.68h0c39.81-4.47,72.12,45.07,61.31,82.53-9.67,33.5,4.39,128.58,4.39,128.58-36.64,12.05-157.77,16.43-175.29-16.82Z"/>
    <g>
      <path class="cls-44" d="M485.59,332.83c-4.4-13.62-12.56-54.23-12.56-54.23-2.18-11.08,5.04-21.83,16.12-24h0c11.08-2.18,21.83,5.04,24,16.12l11.03,56.18c2.18,11.08-5.04,21.83-16.12,24h0c-11.08,2.18-18.47-5.65-22.48-18.07Z"/>
      <path class="cls-44" d="M487.86,338.81l8.87,19.82c4.49,11.8,13.49,16.47,25.6,12.34h0c39.29-8.95,12.75-42.07,5.46-51.47-5.07-6.54-16.07-12.36-28.18-8.23h0c-12.11,4.13-16.23,15.74-11.74,27.54Z"/>
      <path class="cls-44" d="M511.96,356.94l24.25,27.69c2.56,2.93,4.46,6.91,2.94,8.88s-6.78,2.86-12.09-.59c-7.72-5.01-26.03-26.39-26.03-26.39-2.56-2.93-2.27-7.38.66-9.94l.34-.3c2.93-2.56,7.38-2.27,9.94.66Z"/>
      <path class="cls-44" d="M532.2,354.71l23.75,28.12c2.51,2.97,4.25,9.14.43,12.14-4.25,3.34-10.04-.93-12.97-3.26-7.12-5.67-24.12-26.09-24.12-26.09-2.51-2.97-1.74-7.75,1.71-10.66l.4-.34c3.45-2.92,8.29-2.87,10.8.1Z"/>
      <path class="cls-44" d="M536.46,344.18l28.34,23.49c2.99,2.48,3.41,6.92.93,9.92l-.29.35c-2.48,2.99-7.62.32-9.84-.8-5.32-2.68-28.41-21.76-28.41-21.76-2.99-2.48-3.41-6.92-.93-9.92l.29-.35c2.48-2.99,6.92-3.41,9.92-.93Z"/>
    </g>
    <rect class="cls-44" x="471.46" y="202.54" width="40.89" height="98.15" rx="20.45" ry="20.45" transform="translate(-21.3 46.92) rotate(-5.35)"/>
    <g>
      <path class="cls-37" d="M523.08,316.3c6.35,6.61,11.92,14.22,15.68,22.6.98,2.2,1.8,4.47,2.43,6.79.45,1.69,3.09.97,2.63-.72-2.45-9.13-7.73-17.44-13.63-24.72-1.64-2.03-3.37-3.99-5.18-5.87-1.22-1.27-3.14.66-1.93,1.93h0Z"/>
      <path class="cls-37" d="M469.28,246.86c-.06,8.35.3,16.7,1.1,25.02s2.03,16.68,3.67,24.92,3.68,16.3,6.14,24.28,5.35,15.92,8.62,23.65,6.89,15.22,10.91,22.54c.5.91,1.01,1.83,1.53,2.73.86,1.53,3.22.15,2.35-1.38-4.08-7.2-7.79-14.61-11.12-22.19s-6.24-15.33-8.77-23.2-4.66-15.89-6.39-23.98-3.04-16.26-3.93-24.47-1.36-16.5-1.4-24.78c0-1.04,0-2.09,0-3.13.01-1.75-2.71-1.76-2.73,0h0Z"/>
      <path class="cls-37" d="M503.06,372.5c3.65,4.8,7.62,9.34,11.93,13.56,2.1,2.06,4.26,4.1,6.57,5.92s4.89,3.27,7.81,3.89c3.14.67,6.45.52,9.49-.53.7-.24,1.16-.93.95-1.68-.19-.68-.98-1.19-1.68-.95-2.38.82-4.94,1.08-7.43.65-2.66-.46-5.01-1.62-7.14-3.25s-4.19-3.6-6.17-5.51c-2.07-2-4.07-4.08-5.99-6.22-2.1-2.34-4.1-4.76-6-7.26-.44-.59-1.18-.89-1.87-.49-.58.34-.94,1.28-.49,1.87h0Z"/>
      <path class="cls-37" d="M527.74,376.98c3.3,4.55,6.91,8.96,11.08,12.74s9.74,7.77,15.68,6.28c3.44-.87,6.44-4.55,5.05-8.19-.26-.69-.92-1.16-1.68-.95-.66.18-1.22.99-.95,1.68.4,1.06.22,2.1-.45,3.08-.72,1.06-1.87,1.6-3.1,1.85-1.34.27-2.8.08-4.1-.28-1.08-.3-1.78-.62-2.75-1.14-4.53-2.46-8.24-6.4-11.56-10.27-1.74-2.02-3.3-4.02-4.85-6.16-.43-.6-1.19-.89-1.87-.49-.59.34-.92,1.27-.49,1.87h0Z"/>
      <path class="cls-37" d="M542.16,368.88c3.09,2.43,6.36,4.65,9.7,6.72,1.82,1.12,3.67,2.21,5.61,3.12,1.62.75,3.28,1.43,5.1,1.38,2.47-.07,5.05-1.09,6.51-3.15.79-1.11,1.05-2.47.84-3.8-.24-1.53-1.15-2.81-2.1-3.99-3.15-3.93-6.55-7.75-10.32-11.1-4.19-3.72-8.88-6.83-13.58-9.86-1.48-.95-2.85,1.41-1.38,2.35,3.97,2.56,7.98,5.18,11.54,8.14s6.42,6.03,9.29,9.38c.9,1.05,1.84,2.1,2.68,3.2.67.88,1.36,2.03,1.23,3.07-.05.37-.18.68-.38.99-.17.28-.58.7-.85.9-.84.61-1.73.94-2.78,1.09-.26.04-.93.07-1.33.04-.13,0-.26-.02-.39-.03.39.03.21.04.13.01-.17-.04-.34-.07-.51-.11-.33-.08-.65-.19-.96-.3-.16-.06-.32-.12-.47-.18-.09-.04-.18-.07-.27-.11.27.11-.1-.05-.12-.06-1.77-.79-3.46-1.75-5.12-2.74-2.04-1.23-4.04-2.54-6-3.9-.83-.57-1.65-1.16-2.47-1.75-.33-.24-.66-.48-.99-.73-.15-.12-.31-.23-.46-.35-.19-.14.04.03.07.05-.09-.07-.17-.13-.26-.2-.58-.45-1.36-.56-1.93,0-.47.47-.58,1.47,0,1.93h0Z"/>
      <path class="cls-37" d="M522.29,310.82c-2.07-9.31-3.8-18.69-5.17-28.12s-2.37-18.84-3.03-28.31c-.34-4.83-.8-9.9,1.11-14.48.28-.68-.31-1.5-.95-1.68-.79-.22-1.39.27-1.68.95-1.73,4.15-1.62,8.76-1.34,13.17.3,4.79.7,9.57,1.19,14.34.98,9.65,2.33,19.26,4.03,28.8.96,5.37,2.03,10.73,3.22,16.06.38,1.71,3.01.99,2.63-.72h0Z"/>
      <path class="cls-37" d="M544.98,370.74c3.1,3.62,5.92,7.47,8.47,11.51.93,1.48,3.29.11,2.35-1.38-2.66-4.23-5.64-8.26-8.89-12.06-.48-.56-1.44-.49-1.93,0-.55.55-.48,1.37,0,1.93h0Z"/>
    </g>
    <path class="cls-41" d="M464.93,252.58c-7.9-26.78-4.94-83.17-4.94-83.17,2.55-19.25,11.72-32.43,29.07-33.34h0c17.35-.9,32.05,10.53,32.83,25.53l3.74,84.21c-22.18,6.77-42.72,9.78-60.7,6.77Z"/>
    <path class="cls-45" d="M458.76,167.32c-.76,11.16-.98,22.35-.65,33.52s1.19,22.25,2.6,33.31c.8,6.29,1.77,12.56,2.9,18.8.13.72,1.01,1.13,1.68.95.76-.21,1.08-.95.95-1.68-1.99-10.88-3.44-21.85-4.36-32.87s-1.31-22.17-1.16-33.26c.09-6.26.34-12.52.77-18.77.05-.74-.66-1.36-1.36-1.36-.78,0-1.31.63-1.36,1.36h0Z"/>
    <path class="cls-41" d="M465.51,254.4c7.78,1.09,15.64,1.43,23.48.97s15.55-1.68,23.1-3.64c4.26-1.11,8.45-2.46,12.55-4.04.69-.26,1.16-.92.95-1.68-.18-.66-.99-1.22-1.68-.95-7.14,2.75-14.54,4.79-22.08,6.1s-15.19,1.85-22.82,1.65c-4.27-.11-8.54-.45-12.78-1.04-.73-.1-1.46.18-1.68.95-.18.64.22,1.57.95,1.68h0Z"/>
    <path class="cls-41" d="M521.59,181.97c.78,8.25,1.4,16.53,1.84,24.81s.72,16.65.82,24.98c.06,4.68.06,9.37,0,14.05-.02,1.75,2.71,1.76,2.73,0,.09-8.29.01-16.58-.24-24.87s-.67-16.65-1.27-24.97c-.33-4.67-.72-9.34-1.16-14.01-.07-.73-.58-1.36-1.36-1.36-.68,0-1.43.63-1.36,1.36h0Z"/>
    <g>
      <path class="cls-39" d="M486.74,58.55c-.98-5.22-6.96-8.51-13.57-7.6-.33-1.4-.73-2.8-1.23-4.18-7.08-19.59-29.17-29.56-49.34-22.27s-30.78,29.08-23.7,48.67c6.56,18.14,25.98,28.02,44.84,23.59l-.98,7.53c-.78,6.02,3.46,11.53,9.48,12.32h0c6.02.78,11.53-3.46,12.32-9.48l3.2-24.61c.11-.82.11-1.63.04-2.41,1.88-2.85,3.37-5.92,4.43-9.13,1.24.07,2.53,0,3.84-.25,6.91-1.29,11.68-6.74,10.67-12.17Z"/>
      <g class="cls-47">
        <path class="cls-20" d="M442.4,98.53s12.06-3.13,16.47-8.69"/>
      </g>
    </g>
    <path class="cls-37" d="M409.8,72.5c-.33-1.34.54-3.33,2.72-3.24,1.38.06,1.81.71,2.14,2.05s-.49,2.69-1.84,3.02-2.69-.49-3.02-1.84Z"/>
    <path class="cls-37" d="M429.02,66.06c-.33-1.34,0-2.47,1.31-2.89,1.76-.56,3.22.37,3.55,1.71s-.49,2.69-1.84,3.02-2.69-.49-3.02-1.84Z"/>
    <g>
      <path class="cls-40" d="M406.54,30.67c4.02-4.6,16.62-14.43,33.35-12.25,16.73,2.17,29.64,12.51,28.6,20.52-1.04,8.01-15.64,10.67-32.37,8.49-10.9-1.91-26.61-9.77-29.58-16.76Z"/>
      <ellipse class="cls-40" cx="466.98" cy="45.3" rx="7.95" ry="8.9" transform="translate(-.78 8.93) rotate(-1.09)"/>
      <path class="cls-40" d="M394.79,63.06c-2.27-2.95-2.48-10.77.6-18.72,3.08-7.96,10.46-13.85,13.85-15.15.44.57,1.47,13.85-1.61,21.81-3.08,7.96-9.25,11.4-12.84,12.07Z"/>
    </g>
    <g>
      <path class="cls-40" d="M408.28,34.79c.78,4.12.2,8.57-1.21,12.62s-3.76,7.86-6.95,10.77c-1.64,1.5-3.66,2.8-5.69,3.56-.69.26-1.16.92-.95,1.68.18.66.98,1.21,1.68.95,9.13-3.41,14.78-13.08,15.97-22.4.34-2.63.27-5.29-.22-7.9-.14-.72-1.01-1.14-1.68-.95-.76.21-1.09.95-.95,1.68h0Z"/>
      <path class="cls-40" d="M409.75,35.74c4.34,5,10.54,7.77,16.65,9.97,6.73,2.42,13.76,4.39,20.95,4.59,4,.11,8.05-.38,11.85-1.66,1.66-.55.95-3.19-.72-2.63-6.52,2.18-13.48,1.85-20.11.4-3.4-.74-6.74-1.76-10.03-2.9-2.91-1.01-5.79-2.12-8.53-3.53-3.05-1.58-5.87-3.55-8.13-6.16-.48-.56-1.43-.49-1.93,0-.55.55-.48,1.37,0,1.93h0Z"/>
      <path class="cls-40" d="M457.54,47.61c.57,1.84,1.82,3.44,3.28,4.68s3.29,2.33,5.3,2.59c3.6.47,8.5-1.36,9.34-5.31.15-.72-.21-1.47-.95-1.68-.68-.19-1.52.23-1.68.95-.24,1.13-1.07,1.96-2.21,2.58-1.27.69-2.81.97-4.24.76s-2.65-.98-3.7-1.89-2.11-2.14-2.5-3.41c-.52-1.67-3.15-.96-2.63.72h0Z"/>
    </g>
    <ellipse class="cls-26" cx="405.78" cy="70.98" rx="12.35" ry="15.4" transform="translate(5.27 167.37) rotate(-23.45)"/>
    <ellipse class="cls-26" cx="433.95" cy="62.27" rx="13.5" ry="15.9" transform="translate(11.07 177.86) rotate(-23.45)"/>
    <line class="cls-26" x1="417.91" y1="68.28" x2="421.56" y2="67.65"/>
    <line class="cls-26" x1="446.33" y1="56.9" x2="474.14" y2="49.21"/>
    <path class="cls-37" d="M433.55,87.07c2.03-.95,4.3-1.28,6.53-1.04.49.05.91-.46.91-.91,0-.54-.42-.86-.91-.91-2.55-.28-5.13.2-7.45,1.29-.44.21-.56.85-.33,1.24.27.46.8.54,1.24.33h0Z"/>
    <path class="cls-18" d="M525.63,409.08c9.46,26.51,18.53,177.42,17.32,206.98"/>
    <g>
      <path class="cls-43" d="M757.59,655.48v4.99c8.18,14.49,52.19,14.02,52.19,45.19l-111.25-.88.78-47.68"/>
      <line class="cls-25" x1="807.52" y1="700.96" x2="698.6" y2="699.46"/>
      <line class="cls-1" x1="778.52" y1="671.76" x2="767.62" y2="685.12"/>
      <line class="cls-1" x1="770.59" y1="668.42" x2="758.7" y2="684.26"/>
      <line class="cls-1" x1="764.38" y1="665.53" x2="749.4" y2="683.36"/>
      <path class="cls-17" d="M757.59,655.48v4.99c8.39,11.16,52.19,14.02,52.19,45.19l-111.25-.88.78-47.68"/>
      <rect class="cls-5" x="696.65" y="705.66" width="114.44" height="7.32"/>
    </g>
    <g>
      <path class="cls-43" d="M602.52,655.48v4.99c-8.18,14.49-52.19,14.02-52.19,45.19l111.25-.88-.78-47.68"/>
      <line class="cls-25" x1="552.59" y1="700.96" x2="661.51" y2="699.46"/>
      <line class="cls-1" x1="581.59" y1="671.76" x2="592.49" y2="685.12"/>
      <line class="cls-1" x1="589.53" y1="668.42" x2="601.42" y2="684.26"/>
      <line class="cls-1" x1="595.74" y1="665.53" x2="610.71" y2="683.36"/>
      <path class="cls-17" d="M602.52,655.48v4.99c-8.39,11.16-52.19,14.02-52.19,45.19l111.25-.88-.78-47.68"/>
      <rect class="cls-5" x="549.03" y="705.66" width="114.44" height="7.32"/>
    </g>
    <path class="cls-37" d="M762.04,288.21l-54.93,11.78-38.99.13c.05-1.08.11-2.17.16-3.24l-82.13-5.77c-5.46,104.27-1.48,256.35,10.92,364.86l69.96,1.94c0-80.9-3.11-215.16-.44-316.58,7.35-1.27,15.71-1.41,23.34-.6,2.24,85.24,2.21,237.23,2.21,317.18l69.96-2.02c12.4-108.51,20.09-266.54-.07-367.69Z"/>
    <rect class="cls-45" x="550.77" y="190.04" width="51.18" height="96.27" rx="24.15" ry="24.15" transform="translate(80.25 -139.7) rotate(14.84)"/>
    <rect class="cls-45" x="745.84" y="190.04" width="51.18" height="96.27" rx="24.15" ry="24.15" transform="translate(-35.27 205.57) rotate(-14.84)"/>
    <g>
      <path class="cls-45" d="M556.91,366.55c-15.41-44.34-13.36-61-13.36-91,0-18.7,7.17-20.75,18.91-21.29h0c11.74-.54,24.28,4.6,24.28,26.44,0,0,.96,47.61,6.25,69.28,4.54,18.58,7.71,36.79-9.92,50.66-5.91,4.65-20.69-18.34-26.16-34.08Z"/>
      <rect class="cls-45" x="586.09" y="382.69" width="6.01" height="17.85" rx="3.01" ry="3.01" transform="translate(-80.6 619.45) rotate(-52.4)"/>
      <rect class="cls-45" x="579.56" y="386.61" width="10.98" height="23.37" rx="5.49" ry="5.49" transform="translate(-94.77 595.18) rotate(-50.4)"/>
      <rect class="cls-45" x="587.12" y="375.64" width="6.78" height="17.85" rx="3.39" ry="3.39" transform="translate(-114.01 368.8) rotate(-31.79)"/>
      <path class="cls-45" d="M590.51,378.97c-2.58-3.83-8.67-16.32-8.67-16.32-2.45-5-.86-9.16,3.22-10.72,5.03-1.92,8.7,2.33,9.28,4.35,2.11,7.43,4.84,13.3,5.95,18.36.82,3.75,1.84,8.33-.18,8.91-2.03.58-6.74-.35-9.59-4.58Z"/>
    </g>
    <g>
      <path class="cls-45" d="M792.09,366.52c15.41-44.34,13.36-61,13.36-91,0-18.7-7.17-20.75-18.91-21.29h0c-11.74-.54-24.28,3.68-24.28,25.52,0,0-.96,48.53-6.25,70.2-4.54,18.58-7.71,36.79,9.92,50.66,5.91,4.65,20.69-18.34,26.16-34.08Z"/>
      <rect class="cls-45" x="755.59" y="383.69" width="6.01" height="17.85" rx="3.01" ry="3.01" transform="translate(606.87 -447.97) rotate(52.4)"/>
      <rect class="cls-45" x="758.14" y="387.02" width="10.98" height="23.37" rx="5.49" ry="5.49" transform="translate(584.05 -443.82) rotate(50.4)"/>
      <path class="cls-45" d="M757.25,391.06l5.83-9.41c.99-1.59.5-3.68-1.1-4.67h0c-1.59-.99-2.87.78-3.86,2.37l-5.81,8.82c-.99,1.59-1.33,3,.26,3.99h0c1.59.99,3.68.5,4.67-1.1Z"/>
      <path class="cls-45" d="M757.28,378.97c2.58-3.83,8.67-16.32,8.67-16.32,2.45-5,.86-9.16-3.22-10.72-5.03-1.92-7.23-.14-7.55,1.94-.95,6.22-4.88,15.2-5.98,20.26-.82,3.75-3.54,8.83-1.51,9.41s6.74-.35,9.59-4.58Z"/>
    </g>
    <g>
      <path class="cls-37" d="M557.65,207.93c-3.87,10.3-7.07,20.84-9.54,31.57s-4.18,21.55-5.13,32.47-1.11,21.85-.45,32.77,2.17,21.93,4.52,32.68,5.64,21.62,9.75,32c.52,1.32,1.06,2.63,1.6,3.93.27.65.86,1.11,1.6.91.61-.17,1.18-.95.91-1.6-4.29-10.23-7.76-20.8-10.36-31.59s-4.28-21.47-5.14-32.38-.89-21.67-.15-32.49,2.28-21.64,4.54-32.28,5.27-21.15,8.94-31.41c.46-1.3.94-2.59,1.42-3.88.59-1.57-1.92-2.24-2.5-.69h0Z"/>
      <path class="cls-37" d="M585.53,291.86c.12,9.35.99,18.69,2.11,27.96,1.21,10.08,2.74,20.11,4.57,30.09.9,4.91,1.88,9.81,2.97,14.69.36,1.63,2.87.94,2.5-.69-2.03-9.07-3.69-18.22-5.13-27.4-1.55-9.86-2.83-19.76-3.65-29.71-.41-4.97-.71-9.96-.77-14.94-.02-1.67-2.62-1.67-2.6,0h0Z"/>
      <path class="cls-37" d="M595.18,364.6c1.32,3.89,2.64,7.77,3.95,11.66.3.88.62,1.76.89,2.65.22.74.44,1.55.29,2.32-.05.23-.21.61-.29.71-.15.2-.25.28-.36.35-.39.26-.8.32-1.36.29-2.66-.13-5-2.54-6.79-4.45-2.21-2.35-4.08-5-5.59-7.85-1.73-3.27-2.92-6.79-3.57-10.42-.12-.69-.96-1.08-1.6-.91-.73.2-1.03.9-.91,1.6,1.3,7.21,4.76,14,9.77,19.35,2.26,2.42,4.88,4.85,8.32,5.25,1.47.17,3.01-.26,3.98-1.43,1.37-1.64,1.15-3.78.56-5.7-1.47-4.74-3.18-9.41-4.78-14.11-.22-.66-.89-1.1-1.6-.91-.65.18-1.13.93-.91,1.6h0Z"/>
      <path class="cls-37" d="M563.03,381.14c3.95,6.95,8.02,14,13.64,19.77,2.77,2.84,5.97,5.43,9.52,7.21,1.98.99,4.35,1.76,6.56,1.06,1.42-.45,2.6-1.49,3.24-2.83,1.41-2.9.85-7.1-2.32-8.61-.63-.3-1.4-.17-1.78.47-.34.58-.16,1.46.47,1.78,2.4,1.22,5.53.17,6.54-2.38s-.67-5.5-3.23-6.15l-.34,2.55c2.7.31,3.55-2.91,3.1-4.97-.27-1.24-1.11-2.18-1.92-3.12-.69-.79-1.58-1.69-1.61-2.78-.04-1.67-2.64-1.67-2.6,0,.03,1.17.48,2.23,1.17,3.16s1.51,1.65,2.11,2.58c.35.55.46,1.31.36,1.81-.02.09-.16.54-.08.36-.03.07-.07.14-.11.22-.18.33.07-.11-.04.06-.02.03-.14.2-.08.08.02-.04-.11,0,.06-.02-.13.01-.11.02,0,.02-.13,0-.25,0-.38-.02-1.47-.17-1.74,2.2-.34,2.55,1.18.3,1.96,1.71,1.48,2.81-.43.98-1.89,1.43-2.79.97l-1.31,2.24c.2.09.57.31.63.36-.05-.04.19.17.24.23s.31.37.19.21c.39.53.46.73.61,1.33.04.14.07.29.09.44-.03-.21,0,.1.01.16.02.32.02.64,0,.96,0,.06-.01.13-.02.19,0-.03.03-.18,0-.03s-.06.29-.09.44c-.03.12-.07.25-.11.37-.03.08-.18.46-.1.28-.11.25-.25.48-.4.71s0,.03-.13.18c-.11.12-.22.24-.34.35-.05.04-.28.22-.12.11-.12.08-.24.16-.37.23-.3.16-.28.15-.68.25-1.83.43-3.75-.56-5.29-1.43-6.22-3.52-10.93-9.06-14.85-14.93-2.28-3.42-4.33-6.99-6.36-10.56-.82-1.45-3.07-.15-2.24,1.31h0Z"/>
    </g>
    <g>
      <path class="cls-37" d="M788.85,208.62c3.83,10.21,7.02,20.66,9.47,31.28s4.18,21.37,5.12,32.21c.93,10.8,1.1,21.66.45,32.48s-2.15,21.76-4.49,32.43-5.61,21.42-9.68,31.71c-.52,1.32-1.06,2.63-1.6,3.93-.27.65.29,1.43.91,1.6.75.21,1.32-.26,1.6-.91,4.33-10.33,7.82-20.99,10.43-31.88s4.27-21.65,5.15-32.63.91-21.87.16-32.78-2.3-21.82-4.57-32.54-5.3-21.35-9-31.7c-.46-1.3-.94-2.59-1.42-3.88-.58-1.55-3.09-.88-2.5.69h0Z"/>
      <path class="cls-37" d="M760.77,287.51c.6,9.45-.14,19-1.11,28.4-1.09,10.48-2.64,20.91-4.52,31.28-.92,5.05-1.91,10.09-3.04,15.1-.36,1.63,2.14,2.32,2.5.69,2.13-9.49,3.85-19.08,5.29-28.7,1.58-10.52,2.87-21.11,3.43-31.74.26-5,.36-10.02.05-15.01-.04-.7-.56-1.3-1.3-1.3-.67,0-1.34.59-1.3,1.3h0Z"/>
      <path class="cls-37" d="M751.31,363.91c-1.42,4.2-2.85,8.39-4.27,12.59-.62,1.84-1.45,3.96-.72,5.89.62,1.63,2,2.62,3.72,2.77,3.31.3,6.19-2.1,8.37-4.26,2.61-2.58,4.86-5.56,6.62-8.78,1.98-3.6,3.39-7.52,4.12-11.57.12-.69-.19-1.4-.91-1.6-.63-.17-1.47.21-1.6.91-1.16,6.42-4.04,12.49-8.36,17.39-1.87,2.12-4.04,4.55-6.88,5.22-.32.08-.43.1-.72.11s-.53,0-.66-.02c-.53-.1-.76-.22-1.07-.62-.83-1.1,0-3.07.41-4.28,1.48-4.35,2.95-8.7,4.43-13.06.23-.66-.26-1.42-.91-1.6-.71-.2-1.37.24-1.6.91h0Z"/>
      <path class="cls-37" d="M783.73,379.83c-3.55,6.26-7.18,12.6-12.03,17.96-2.36,2.61-5,4.97-7.99,6.83-1.54.96-3.26,2.02-5.1,2.2-.42.04-.85.04-1.26-.04-.18-.04-.35-.09-.52-.14-.14-.05-.01,0,.01.01-.08-.03-.15-.07-.23-.11-.13-.07-.25-.14-.37-.23s0,0,.02.02c-.06-.05-.13-.11-.19-.16-.09-.08-.18-.17-.26-.26-.06-.06-.11-.12-.16-.19.09.11.03.03-.02-.03-.66-.97-.9-2.08-.74-3.19.02-.13.14-.61.23-.87s0-.04.08-.21c.08-.15.15-.29.24-.43.24-.4.6-.72,1.2-1l-1.31-2.24c-.9.46-2.36,0-2.79-.97-.49-1.1.3-2.51,1.48-2.81,1.38-.35,1.14-2.72-.34-2.55-.11.01-.21.02-.32.02-.18,0,.16.06,0,0-.11-.04.11.13-.04-.03.08.09.09.08,0,0-.16-.17.03.07-.04-.05-.04-.07-.08-.14-.12-.21-.05-.11.03.12-.03-.1-.02-.08-.05-.17-.07-.25-.09-.39,0,.11-.02-.12,0-.09-.01-.18-.02-.28,0-.12,0-.23,0-.35,0-.05.02-.22,0-.08.07-.49.14-.67.38-1.05.58-.9,1.4-1.65,2.05-2.51.72-.95,1.19-2.02,1.23-3.23.04-1.67-2.55-1.67-2.6,0-.03,1.06-.87,1.94-1.54,2.71-.83.95-1.7,1.91-1.98,3.18-.45,2.07.41,5.28,3.1,4.97l-.34-2.55c-2.56.65-4.22,3.65-3.23,6.15s4.15,3.6,6.54,2.38c.62-.32.8-1.2.47-1.78-.38-.65-1.14-.77-1.78-.47-2.73,1.31-3.6,4.8-2.75,7.53.44,1.41,1.32,2.7,2.62,3.45,1.82,1.04,4.09.83,5.99.12,3.79-1.43,7.23-4.12,10.12-6.9s5.38-5.95,7.65-9.24c2.55-3.72,4.8-7.63,7.03-11.55.83-1.45-1.42-2.76-2.24-1.31h0Z"/>
    </g>
    <g>
      <path class="cls-17" d="M583.48,405.93c0,42.06,6.71,229.53,13.6,250.05l69.96,1.94s-2.28-297.39.65-315.48"/>
      <path class="cls-17" d="M774.72,405.93c0,42.06-6.71,229.53-13.6,250.05l-69.96,1.94s2.28-297.39-.65-315.48"/>
      <path class="cls-6" d="M654.71,344.95c18.25-7.71,32.77-5.33,50.55-.8"/>
    </g>
    <g>
      <path class="cls-43" d="M586.83,291.86s6.08-78.86,27.03-134.39c6.97-18.46,18.37-51.38,51.81-51.38h20.32c33.43,0,43.78,38.57,50.46,55.04,18.58,45.81,24.42,126.79,24.42,126.79-49.54,22.11-129.17,19.22-174.05,3.94Z"/>
      <path class="cls-43" d="M554.14,192.87s5.84-22.54,29.34-46.03c18.97-18.97,51.69-42.39,71.23-36.65,0,0-12.84,36.08-16.8,45.28-10.06,23.38-34.03,65.08-34.03,65.08-20.81,1.46-42.52-11.94-49.73-27.68Z"/>
      <path class="cls-43" d="M794.12,192.87s-5.84-22.54-29.34-46.03c-18.97-18.97-51.69-42.39-71.23-36.65,0,0,12.84,36.08,16.8,45.28,10.06,23.38,34.03,65.08,34.03,65.08,20.81,1.46,42.52-11.94,49.73-27.68Z"/>
    </g>
    <g>
      <path class="cls-37" d="M658.58,104.84c-9.17,1.6-18.15,4.2-26.77,7.7s-16.99,7.88-24.8,13.04-15.13,11.08-21.8,17.64-12.64,13.74-17.88,21.45c-5.23,7.72-9.65,15.97-13.18,24.6-.44,1.08-.86,2.16-1.28,3.25-.25.66.27,1.42.91,1.6.73.2,1.35-.25,1.6-.91,3.23-8.57,7.41-16.78,12.37-24.48s10.7-14.9,17.09-21.47,13.37-12.5,20.88-17.7,15.6-9.73,24.03-13.38,17.19-6.4,26.16-8.21c1.11-.22,2.23-.43,3.34-.63.69-.12,1.08-.97.91-1.6-.2-.73-.9-1.03-1.6-.91h0Z"/>
      <path class="cls-37" d="M555.19,198.95c7.6,9.57,18.11,16.73,29.71,20.51,3.26,1.06,6.6,1.84,9.99,2.34.69.1,1.39-.17,1.6-.91.17-.61-.21-1.49-.91-1.6-11.72-1.71-22.86-6.93-31.66-14.85-2.5-2.25-4.8-4.7-6.89-7.33-.44-.55-1.38-.46-1.84,0-.54.54-.44,1.28,0,1.84h0Z"/>
      <path class="cls-45" d="M602.62,190.12c-3.9,12.89-7.11,25.99-9.77,39.19s-4.81,26.79-6.28,40.32c-.78,7.14-1.36,14.31-1.71,21.48-.08,1.67,2.52,1.67,2.6,0,.62-12.98,2.02-25.93,3.96-38.77s4.65-26.81,7.86-40.02c1.76-7.22,3.69-14.4,5.84-21.51.48-1.6-2.02-2.29-2.5-.69h0Z"/>
      <path class="cls-37" d="M688.43,107.34c9.07,1.59,17.97,4.15,26.51,7.59s16.63,7.74,24.28,12.78,14.77,10.8,21.29,17.21c6.52,6.4,12.42,13.42,17.55,20.98s9.55,15.67,13,24.14c.43,1.05.84,2.11,1.24,3.17.25.66.88,1.1,1.6.91.63-.17,1.15-.94.91-1.6-3.3-8.75-7.52-17.15-12.58-25.02s-10.91-15.23-17.42-21.94-13.7-12.8-21.39-18.14-15.75-9.84-24.26-13.52-17.47-6.57-26.61-8.42c-1.14-.23-2.29-.45-3.43-.65-.69-.12-1.4.19-1.6.91-.17.63.21,1.47.91,1.6h0Z"/>
      <path class="cls-37" d="M790.68,197.11c-7.37,9.28-17.48,16.27-28.75,19.91-3.2,1.03-6.48,1.79-9.8,2.28-.69.1-1.08.98-.91,1.6.2.74.9,1.01,1.6.91,12.09-1.77,23.56-7.25,32.66-15.39,2.55-2.28,4.91-4.78,7.04-7.46.44-.55.54-1.3,0-1.84-.45-.45-1.4-.55-1.84,0h0Z"/>
      <path class="cls-45" d="M742.58,190.81c3.73,12.34,6.92,24.85,9.57,37.46s4.77,25.19,6.39,37.91c.9,7.09,1.64,14.2,2.23,21.32.06.7.56,1.3,1.3,1.3.66,0,1.36-.6,1.3-1.3-1.06-12.81-2.62-25.59-4.68-38.28s-4.66-25.43-7.78-37.97c-1.77-7.09-3.71-14.14-5.82-21.14-.48-1.59-2.99-.91-2.5.69h0Z"/>
      <path class="cls-37" d="M586.48,293.11c10.49,3.7,21.3,6.42,32.24,8.41,11.68,2.13,23.51,3.43,35.37,4.02s24.28.47,36.39-.42c11.94-.87,23.84-2.46,35.57-4.88,11.05-2.28,21.97-5.3,32.53-9.3,1.27-.48,2.54-.98,3.8-1.49.65-.26,1.1-.86.91-1.6-.16-.62-.95-1.17-1.6-.91-10.37,4.2-21.12,7.41-32.03,9.86-11.5,2.59-23.18,4.34-34.92,5.37-12,1.05-24.06,1.37-36.1.95s-23.56-1.5-35.19-3.42c-10.99-1.81-21.88-4.34-32.46-7.81-1.27-.42-2.54-.85-3.81-1.3-1.58-.56-2.26,1.95-.69,2.5h0Z"/>
    </g>
    <g>
      <path class="cls-37" d="M606.53,103.74s9.13-35.26,13.73-50.18c8.85-28.7,28.77-52,56.56-52,19.16,0,45.14,18.8,55.33,55.98,7.41,27.03,12.27,48.55,12.27,48.55l-137.89-2.35Z"/>
      <path class="cls-37" d="M621.37,144.27v-52.48c0-8.07,10.04,2.7,17.22,2.7h.99c7.18,0,13.01,6.54,13.01,14.62l1.21,47.86c0,8.07-7.03,19.24-14.22,19.24h-.99c-7.18,0-13.75-3.8-17.22-31.93Z"/>
      <path class="cls-37" d="M666.36,139.83c1.34-9.85-4.09-17.57.73-21.71,3.89-3.34-4.9-15.81-9.91-18.43-2.66-1.39-12.23,2.13-12.15,6.69.17,10.81,1.17,32.42,1.37,43.23.08,4.56-1.15,13.9,8.31,8.26.14-.08.48-.01.64,0,4.58.38,8.84-2.11,11.01-18.04Z"/>
      <path class="cls-37" d="M607.06,126.34c-.52-10.95.51-25.89.51-25.89,0-4.12,14.55-.71,14.55-.71,3.37,0,5.64,10.72,5.64,14.83l-2.18,25.72c0,4.12-5.13,8.49-8.5,8.49h-.47c-3.37,0-8.87-8.01-9.56-22.45Z"/>
      <path class="cls-37" d="M729.96,144.27v-52.48c0-8.07-10.04,2.7-17.22,2.7h-.99c-7.18,0-13.01,6.54-13.01,14.62l-1.21,47.86c0,8.07,7.03,19.24,14.22,19.24h.99c7.18,0,13.75-3.8,17.22-31.93Z"/>
      <path class="cls-37" d="M684.97,139.83c-1.11-11.32,4.09-17.57-.73-21.71-3.89-3.34,4.9-15.81,9.91-18.43,2.66-1.39,12.23,2.13,12.15,6.69-.17,10.81-1.17,32.42-1.37,43.23-.08,4.56,1.15,13.9-8.31,8.26-.14-.08-.48-.01-.64,0-4.58.38-9.44-2.04-11.01-18.04Z"/>
      <path class="cls-37" d="M744.27,126.34c.52-10.95-.51-25.89-.51-25.89,0-4.12-14.55-.71-14.55-.71-3.37,0-5.64,10.72-5.64,14.83l2.18,25.72c0,4.12,5.13,8.49,8.5,8.49h.47c3.37,0,8.87-8.01,9.56-22.45Z"/>
    </g>
    <g>
      <path class="cls-37" d="M675.24.31c-11.35-1.64-22.11,4.28-30.47,11.43-9.16,7.83-16.04,17.79-20.89,28.78-2.66,6.04-4.82,12.28-6.77,18.58s-3.95,13.12-5.66,19.75c-3.47,13.53-6.01,27.43-6.03,41.44,0,3.47.15,6.95.48,10.4.31,3.22.67,6.51,1.47,9.66.7,2.77,1.92,5.67,4.14,7.58,1.99,1.71,4.67,2.69,7.3,2.32,1.31-.18,2.44-.72,3.47-1.54l-2.22-.92c.54,7.61,1.13,16.06,5.92,22.37,3.94,5.21,10.96,9.04,17.53,6.75,3.17-1.11,5.69-3.39,7.52-6.16s2.78-6.01,3.63-9.29c.18-.68.39-1.49,1.02-1.89.67-.42,1.59-.32,2.34-.31,1.78.02,3.4-.2,4.8-1.39,1.25-1.06,2-2.61,2.56-4.12.71-1.89,1.21-3.89,1.64-5.86,1.98-9.19,1.61-18.85-1.11-27.85l-.6,1.47c4.32-1.95,5.21-8.62,1.61-11.66-1.27-1.07-3.11.76-1.84,1.84,2.42,2.04,1.79,6.29-1.08,7.59-.51.23-.75.96-.6,1.47,2.26,7.47,2.89,15.44,1.72,23.17-.29,1.95-.7,3.88-1.2,5.78-.42,1.57-.84,3.21-1.61,4.65-.68,1.26-1.6,2.22-3.09,2.32-1.65.11-3.35-.21-4.85.68-1.41.84-1.98,2.41-2.33,3.93s-.75,3.05-1.34,4.51c-1.08,2.72-2.77,5.41-5.15,7.16-5.25,3.85-11.92,1.65-16.11-2.69-5.67-5.86-6.24-14.77-6.79-22.46-.08-1.19-1.33-1.62-2.22-.92-1.77,1.41-4.38.94-6.18-.14-2.25-1.34-3.47-3.84-4.18-6.27-.84-2.9-1.2-5.96-1.51-8.95-.34-3.29-.52-6.6-.55-9.9-.13-13.33,2.1-26.56,5.28-39.47,1.58-6.41,3.4-12.75,5.31-19.07,1.8-5.96,3.71-11.9,6.02-17.68,4.3-10.74,10.26-20.63,18.59-28.72,7.35-7.14,17.07-13.88,27.7-14.06,1.21-.02,2.43.04,3.63.21.7.1,1.39-.17,1.6-.91.17-.61-.21-1.5-.91-1.6h0Z"/>
      <path class="cls-37" d="M679.99,2.86c9.93,1.27,19.43,4.88,26.83,11.77,2.98,2.78,5.57,5.93,7.91,9.26,3.15,4.48,5.96,9.18,8.36,14.1,5.73,11.74,9.47,24.45,12.9,37.02,3.61,13.23,6.46,26.75,7.03,40.48.28,6.77.03,13.58-1,20.29-.73,4.75-2.35,11.75-8.36,11.96-1.05.04-2.13-.2-2.96-.86-.89-.71-2.13-.27-2.22.92-.5,7.04-1,14.86-5.33,20.76-3.42,4.65-9.99,8.21-15.67,5.52-2.72-1.29-4.71-3.64-6.1-6.26-.73-1.38-1.3-2.83-1.73-4.33s-.58-3.05-1.3-4.42c-.82-1.57-2.33-2.28-4.04-2.38-1.44-.09-3.04.29-4.25-.72-1.06-.89-1.63-2.31-2.05-3.59-.61-1.84-1.1-3.73-1.49-5.64-1.78-8.6-1.33-17.6,1.21-26,.15-.5-.09-1.24-.6-1.47-2.87-1.29-3.5-5.55-1.08-7.59,1.28-1.08-.57-2.91-1.84-1.84-3.61,3.05-2.71,9.71,1.61,11.66l-.6-1.47c-2.45,8.1-2.98,16.68-1.64,25.02.32,2,.75,3.98,1.3,5.93.48,1.73,1,3.53,1.95,5.07.85,1.39,2.09,2.58,3.7,2.99.84.21,1.72.21,2.58.2.75,0,1.67-.11,2.34.31,1.19.76,1.25,2.99,1.58,4.22.45,1.63,1.05,3.23,1.8,4.75,1.45,2.93,3.6,5.64,6.46,7.3,6.19,3.61,13.66,1.03,18.32-3.86,6.11-6.41,6.86-15.82,7.46-24.2l-2.22.92c2.17,1.73,5,2.04,7.59,1.08,2.75-1.02,4.77-3.12,6.01-5.75,1.32-2.8,1.83-5.85,2.25-8.89.49-3.51.8-7.03.93-10.57.53-14.37-1.78-28.72-5.18-42.65-1.68-6.9-3.63-13.73-5.72-20.51s-4.2-12.92-6.87-19.17c-2.52-5.9-5.5-11.56-9.03-16.92-2.39-3.62-4.97-7.15-7.95-10.31-7.02-7.44-16.15-12.08-26.16-14.02-1.57-.31-3.16-.54-4.75-.75-.7-.09-1.29.66-1.3,1.3,0,.77.61,1.21,1.3,1.3h0Z"/>
    </g>
    <path class="cls-45" d="M715.17,43.88c-.53-21.28-17.93-38.37-39.34-38.37s-38.81,17.09-39.34,38.37c-6.6.41-11.79,4.74-11.79,10.03,0,5.56,5.74,10.07,12.82,10.07,1.27,0,2.5-.15,3.66-.42,4.95,9.15,13.41,16.12,23.58,19.09v19.94c-.35.87-.54,1.8-.54,2.77,0,5.06,5.2,9.16,11.62,9.16s11.62-4.1,11.62-9.16c0-.97-.19-1.9-.54-2.77v-19.94c10.17-2.98,18.64-9.94,23.58-19.09,1.16.27,2.39.42,3.66.42,7.08,0,12.82-4.51,12.82-10.07s-5.19-9.62-11.79-10.03Z"/>
    <g id="_グループ_顔" data-name="&amp;lt;グループ&amp;gt;顔">
      <path class="cls-17" d="M715.17,43.88c-.53-21.28-17.93-38.37-39.34-38.37s-38.81,17.09-39.34,38.37c-6.6.41-11.79,4.74-11.79,10.03,0,5.56,5.74,10.07,12.82,10.07,1.27,0,2.5-.15,3.66-.42,4.95,9.15,13.41,16.12,23.58,19.09v19.94c-.35.87-.54,1.8-.54,2.77,0,5.06,5.2,9.16,11.62,9.16s11.62-4.1,11.62-9.16c0-.97-.19-1.9-.54-2.77v-19.94c10.17-2.98,18.64-9.94,23.58-19.09,1.16.27,2.39.42,3.66.42,7.08,0,12.82-4.51,12.82-10.07s-5.19-9.62-11.79-10.03Z"/>
      <path class="cls-37" d="M659.06,45.52c0-1.39,1.32-3.13,3.43-2.52,1.34.39,1.6,1.13,1.6,2.52s-1.13,2.52-2.52,2.52-2.52-1.13-2.52-2.52Z"/>
      <path class="cls-37" d="M685.47,45.52c0-1.39.58-2.42,1.97-2.52,1.86-.13,3.07,1.13,3.07,2.52s-1.13,2.52-2.52,2.52-2.52-1.13-2.52-2.52Z"/>
      <path class="cls-37" d="M673.08,43.66c.38,2.17.75,4.34,1.13,6.52.12.67.97,1.11,1.6.91.72-.23,1.03-.88.91-1.6-.38-2.17-.75-4.34-1.13-6.52-.12-.67-.97-1.11-1.6-.91-.72.23-1.03.88-.91,1.6h0Z"/>
      <path class="cls-37" d="M668.94,56.96c1.81,2.67,5.01,4.39,8.27,4.1s6.11-2.22,7.49-5.11c.3-.63.17-1.4-.47-1.78-.57-.33-1.47-.17-1.78.47-.98,2.04-2.96,3.6-5.25,3.82s-4.71-.88-6.03-2.82c-.39-.58-1.14-.84-1.78-.47-.57.34-.86,1.19-.47,1.78h0Z"/>
    </g>
    <g>
      <path class="cls-37" d="M636.51,43c-4.61-1.99.21-17.54,3.91-22.27,4.07-5.22,10.98-11.86,15.59-9.87s3.44,12.38-.63,21.82c-4.07,9.44-14.26,12.31-18.87,10.32Z"/>
      <path class="cls-37" d="M685.47,5.5c9.18-3.01,22.99,10.16,26.74,17.43,3.03,5.89,8.9,20.27,0,23.11-3.65,1.17-7.8-2.11-10.98-5.7-2.83-3.18-.98-16.32-9.13-22.46-7.1-5.34-9.41-11.47-6.62-12.39Z"/>
      <path class="cls-37" d="M650.22,14.97c0-6.39,13.03-11.56,23.3-11.94,10.63-.4,16.98,1.61,16.98,6.63,0,5.36-6.19,9.7-16.38,11.07s-23.91-.74-23.91-5.76Z"/>
    </g>
    <path class="cls-37" d="M640.41,44.3c4.38-.31,8.39-2.33,11.59-5.29,3.37-3.12,5.63-7.22,7.19-11.5.9-2.49,1.55-5.06,2.09-7.65.14-.69-.2-1.4-.91-1.6-.64-.18-1.45.22-1.6.91-1.65,8-4.77,16.55-12.35,20.7-1.85,1.01-3.9,1.68-6.01,1.83-.7.05-1.3.56-1.3,1.3,0,.66.59,1.35,1.3,1.3h0Z"/>
    <path class="cls-37" d="M658.72,20.1c7.65,2.8,16.37,2.51,23.87-.63,2.13-.89,4.16-1.98,6.06-3.31.57-.4.84-1.13.47-1.78-.33-.57-1.2-.87-1.78-.47-6.25,4.39-14.13,6.28-21.7,5.24-2.12-.29-4.21-.83-6.22-1.57-.66-.24-1.42.27-1.6.91-.2.72.25,1.35.91,1.6h0Z"/>
    <path class="cls-37" d="M688.26,17.6c6.13,1.22,7.88,8.25,8.91,13.47,1.11,5.67,2.51,12.59,8.22,15.46,2.84,1.43,6.41,1.7,9.12-.18.58-.4.84-1.14.47-1.78-.33-.57-1.2-.87-1.78-.47-2,1.38-4.57,1.2-6.66.1-2.36-1.24-3.92-3.57-4.87-6.01-2.25-5.74-1.9-12.37-5.36-17.66-1.7-2.61-4.22-4.81-7.35-5.43-.69-.14-1.4.2-1.6.91-.18.64.22,1.46.91,1.6h0Z"/>
    <path class="cls-45" d="M625.14,84.67c-.75,5.18-1.49,10.35-2.24,15.53-.07.49.12.98.64,1.13.43.12,1.06-.15,1.13-.64.75-5.18,1.49-10.35,2.24-15.53.07-.49-.12-.98-.64-1.13-.43-.12-1.06.15-1.13.64h0Z"/>
    <path class="cls-45" d="M634.26,90.63c-1.31,6.9-1.63,13.95-.92,20.94.05.5.38.91.92.92.46,0,.97-.42.92-.92-.7-6.82-.42-13.72.85-20.45.22-1.15-1.55-1.65-1.77-.49h0Z"/>
    <path class="cls-45" d="M643.8,92.08c-.63,6.33-.18,12.73,1.3,18.91.28,1.15,2.04.66,1.77-.49-1.45-6.03-1.86-12.26-1.24-18.43.05-.5-.46-.91-.92-.92-.54,0-.87.43-.92.92h0Z"/>
    <path class="cls-45" d="M700.75,90.32c1.06,3.71,2.12,7.42,3.18,11.13.32,1.13,2.09.65,1.77-.49-1.06-3.71-2.12-7.42-3.18-11.13-.32-1.13-2.09-.65-1.77.49h0Z"/>
    <path class="cls-45" d="M709.05,85.56c2.88,7.56,4.63,15.53,5.13,23.61.07,1.17,1.9,1.18,1.83,0-.51-8.24-2.25-16.38-5.2-24.1-.42-1.09-2.19-.62-1.77.49h0Z"/>
    <path class="cls-45" d="M720.19,84.36c2.01,6.13,3.47,12.45,4.31,18.85.07.49.37.91.92.92.44,0,.98-.43.92-.92-.87-6.57-2.32-13.04-4.38-19.33-.37-1.11-2.13-.64-1.77.49h0Z"/>
    <path class="cls-45" d="M664.63,308.96c.25,4.52.52,9.4,2.99,13.36,2.06,3.31,5.74,5.96,9.79,5.59,1.16-.11,1.18-1.94,0-1.83-3.55.32-6.68-2.05-8.4-5-2.11-3.63-2.32-8.03-2.54-12.11-.06-1.17-1.9-1.18-1.83,0h0Z"/>
    <path class="cls-45" d="M675.62,307.27c.39,8.66,1.19,17.3,2.38,25.88.34,2.43.71,4.85,1.11,7.27.19,1.16,1.96.67,1.77-.49-1.4-8.43-2.41-16.92-3.02-25.44-.17-2.41-.31-4.81-.42-7.22-.05-1.17-1.88-1.18-1.83,0h0Z"/>
    <path class="cls-45" d="M601.61,309.69c-4.89,6.36-9.77,12.71-14.66,19.07-.3.39-.06,1.02.33,1.25.47.28.95.06,1.25-.33,4.89-6.36,9.77-12.71,14.66-19.07.3-.39.06-1.02-.33-1.25-.47-.28-.95-.06-1.25.33h0Z"/>
    <path class="cls-45" d="M748.49,309.97c6.37,5.78,12.73,11.56,19.1,17.35.87.79,2.17-.5,1.29-1.29-6.37-5.78-12.73-11.56-19.1-17.35-.87-.79-2.17.5-1.29,1.29h0Z"/>
  </g>
</svg>